<mxfile host="65bd71144e">
    <diagram id="iqULjE4o9p0kMfshamyn" name="Page-1">
        <mxGraphModel dx="7213" dy="3160" grid="1" gridSize="10" guides="1" tooltips="1" connect="1" arrows="0" fold="1" page="1" pageScale="1" pageWidth="2400" pageHeight="1600" background="#FFFFFF" math="0" shadow="0">
            <root>
                <mxCell id="0"/>
                <mxCell id="1" parent="0"/>
                <mxCell id="rCRO5mDwt1Ey6ZGiLpo1-197" value="" style="group" parent="1" vertex="1" connectable="0">
                    <mxGeometry x="-470" y="950" width="579.3800000000001" height="690" as="geometry"/>
                </mxCell>
                <mxCell id="623" style="edgeStyle=none;html=1;exitX=0;exitY=0.25;exitDx=0;exitDy=0;entryX=1;entryY=0.5;entryDx=0;entryDy=0;endArrow=none;endFill=0;" parent="rCRO5mDwt1Ey6ZGiLpo1-197" source="rCRO5mDwt1Ey6ZGiLpo1-198" target="622" edge="1">
                    <mxGeometry relative="1" as="geometry"/>
                </mxCell>
                <mxCell id="rCRO5mDwt1Ey6ZGiLpo1-198" value="Orders" style="whiteSpace=wrap;html=1;align=center;" parent="rCRO5mDwt1Ey6ZGiLpo1-197" vertex="1">
                    <mxGeometry x="320" y="160" width="110" height="60" as="geometry"/>
                </mxCell>
                <mxCell id="rCRO5mDwt1Ey6ZGiLpo1-199" value="&lt;u&gt;Order ID&lt;/u&gt;" style="ellipse;whiteSpace=wrap;html=1;align=center;" parent="rCRO5mDwt1Ey6ZGiLpo1-197" vertex="1">
                    <mxGeometry x="200" y="70" width="100" height="40" as="geometry"/>
                </mxCell>
                <mxCell id="rCRO5mDwt1Ey6ZGiLpo1-200" value="Discount Percentage" style="ellipse;whiteSpace=wrap;html=1;align=center;" parent="rCRO5mDwt1Ey6ZGiLpo1-197" vertex="1">
                    <mxGeometry x="460" y="130" width="100" height="40" as="geometry"/>
                </mxCell>
                <mxCell id="rCRO5mDwt1Ey6ZGiLpo1-201" value="Cost of Products" style="ellipse;whiteSpace=wrap;html=1;align=center;" parent="rCRO5mDwt1Ey6ZGiLpo1-197" vertex="1">
                    <mxGeometry x="440" y="60" width="100" height="40" as="geometry"/>
                </mxCell>
                <mxCell id="rCRO5mDwt1Ey6ZGiLpo1-204" value="" style="endArrow=none;html=1;rounded=0;entryX=0;entryY=1;entryDx=0;entryDy=0;" parent="rCRO5mDwt1Ey6ZGiLpo1-197" target="rCRO5mDwt1Ey6ZGiLpo1-201" edge="1">
                    <mxGeometry relative="1" as="geometry">
                        <mxPoint x="390" y="160" as="sourcePoint"/>
                        <mxPoint x="380" y="100" as="targetPoint"/>
                    </mxGeometry>
                </mxCell>
                <mxCell id="rCRO5mDwt1Ey6ZGiLpo1-206" value="" style="endArrow=none;html=1;rounded=0;entryX=0;entryY=0.5;entryDx=0;entryDy=0;exitX=1;exitY=0.5;exitDx=0;exitDy=0;" parent="rCRO5mDwt1Ey6ZGiLpo1-197" source="rCRO5mDwt1Ey6ZGiLpo1-198" target="rCRO5mDwt1Ey6ZGiLpo1-200" edge="1">
                    <mxGeometry relative="1" as="geometry">
                        <mxPoint x="430" y="190" as="sourcePoint"/>
                        <mxPoint x="400" y="120" as="targetPoint"/>
                    </mxGeometry>
                </mxCell>
                <mxCell id="rCRO5mDwt1Ey6ZGiLpo1-207" value="" style="endArrow=none;html=1;rounded=0;entryX=1;entryY=1;entryDx=0;entryDy=0;" parent="rCRO5mDwt1Ey6ZGiLpo1-197" source="rCRO5mDwt1Ey6ZGiLpo1-198" target="rCRO5mDwt1Ey6ZGiLpo1-199" edge="1">
                    <mxGeometry relative="1" as="geometry">
                        <mxPoint x="410" y="200" as="sourcePoint"/>
                        <mxPoint x="410" y="130" as="targetPoint"/>
                    </mxGeometry>
                </mxCell>
                <mxCell id="622" value="Taxes" style="ellipse;whiteSpace=wrap;html=1;align=center;" parent="rCRO5mDwt1Ey6ZGiLpo1-197" vertex="1">
                    <mxGeometry x="190" y="130" width="100" height="40" as="geometry"/>
                </mxCell>
                <mxCell id="84" value="" style="edgeStyle=none;html=1;" parent="1" source="66" edge="1">
                    <mxGeometry relative="1" as="geometry"/>
                </mxCell>
                <mxCell id="639" style="edgeStyle=none;html=1;exitX=0.5;exitY=0;exitDx=0;exitDy=0;entryX=0;entryY=1;entryDx=0;entryDy=0;endArrow=none;endFill=0;" parent="1" source="267" target="638" edge="1">
                    <mxGeometry relative="1" as="geometry"/>
                </mxCell>
                <mxCell id="267" value="Supplies" style="shape=rhombus;perimeter=rhombusPerimeter;whiteSpace=wrap;html=1;align=center;" parent="1" vertex="1">
                    <mxGeometry x="210" y="620" width="120" height="60" as="geometry"/>
                </mxCell>
                <mxCell id="636" style="edgeStyle=none;html=1;exitX=1;exitY=0;exitDx=0;exitDy=0;entryX=0.289;entryY=0.934;entryDx=0;entryDy=0;entryPerimeter=0;endArrow=none;endFill=0;" parent="1" source="66" target="70" edge="1">
                    <mxGeometry relative="1" as="geometry"/>
                </mxCell>
                <mxCell id="66" value="Address" style="ellipse;whiteSpace=wrap;html=1;align=center;" parent="1" vertex="1">
                    <mxGeometry x="-670" y="524" width="100" height="42" as="geometry"/>
                </mxCell>
                <mxCell id="67" value="Plot Number" style="ellipse;whiteSpace=wrap;html=1;align=center;" parent="1" vertex="1">
                    <mxGeometry x="-780" y="471.5" width="100" height="42" as="geometry"/>
                </mxCell>
                <mxCell id="68" value="City" style="ellipse;whiteSpace=wrap;html=1;align=center;" parent="1" vertex="1">
                    <mxGeometry x="-680" y="440" width="100" height="42" as="geometry"/>
                </mxCell>
                <mxCell id="71" value="" style="endArrow=none;html=1;rounded=0;entryX=0;entryY=0;entryDx=0;entryDy=0;" parent="1" target="63" edge="1">
                    <mxGeometry relative="1" as="geometry">
                        <mxPoint x="-750" y="586.475" as="sourcePoint"/>
                        <mxPoint x="-590" y="586.475" as="targetPoint"/>
                    </mxGeometry>
                </mxCell>
                <mxCell id="72" value="" style="endArrow=none;html=1;rounded=0;entryX=0.75;entryY=0;entryDx=0;entryDy=0;exitX=0.5;exitY=1;exitDx=0;exitDy=0;" parent="1" source="66" target="63" edge="1">
                    <mxGeometry relative="1" as="geometry">
                        <mxPoint x="-740" y="596.975" as="sourcePoint"/>
                        <mxPoint x="-700" y="618.5" as="targetPoint"/>
                    </mxGeometry>
                </mxCell>
                <mxCell id="73" value="" style="endArrow=none;html=1;rounded=0;entryX=0;entryY=0;entryDx=0;entryDy=0;exitX=1;exitY=1;exitDx=0;exitDy=0;" parent="1" source="67" target="66" edge="1">
                    <mxGeometry relative="1" as="geometry">
                        <mxPoint x="-730" y="607.475" as="sourcePoint"/>
                        <mxPoint x="-690" y="629" as="targetPoint"/>
                    </mxGeometry>
                </mxCell>
                <mxCell id="74" value="" style="endArrow=none;html=1;rounded=0;entryX=0.358;entryY=0.008;entryDx=0;entryDy=0;exitX=0.5;exitY=1;exitDx=0;exitDy=0;entryPerimeter=0;" parent="1" source="68" target="66" edge="1">
                    <mxGeometry relative="1" as="geometry">
                        <mxPoint x="-720" y="617.975" as="sourcePoint"/>
                        <mxPoint x="-680" y="639.5" as="targetPoint"/>
                    </mxGeometry>
                </mxCell>
                <mxCell id="195" value="Warehouse Worker" style="whiteSpace=wrap;html=1;align=center;" parent="1" vertex="1">
                    <mxGeometry x="-1017.5" y="360" width="100" height="40" as="geometry"/>
                </mxCell>
                <mxCell id="330" style="edgeStyle=none;html=1;exitX=0;exitY=0.5;exitDx=0;exitDy=0;endArrow=none;endFill=0;entryX=0.75;entryY=1;entryDx=0;entryDy=0;" parent="1" source="rCRO5mDwt1Ey6ZGiLpo1-29" target="rCRO5mDwt1Ey6ZGiLpo1-137" edge="1">
                    <mxGeometry relative="1" as="geometry">
                        <mxPoint x="390" y="330" as="targetPoint"/>
                        <Array as="points">
                            <mxPoint x="413" y="330"/>
                        </Array>
                    </mxGeometry>
                </mxCell>
                <mxCell id="411" value="1" style="edgeLabel;html=1;align=center;verticalAlign=middle;resizable=0;points=[];fontColor=#000000;" parent="330" vertex="1" connectable="0">
                    <mxGeometry x="0.4815" relative="1" as="geometry">
                        <mxPoint x="5" y="5" as="offset"/>
                    </mxGeometry>
                </mxCell>
                <mxCell id="283" style="edgeStyle=none;html=1;exitX=0.5;exitY=1;exitDx=0;exitDy=0;endArrow=none;endFill=0;entryX=0;entryY=0.5;entryDx=0;entryDy=0;shape=link;" parent="1" source="225" target="267" edge="1">
                    <mxGeometry relative="1" as="geometry">
                        <mxPoint x="100" y="600" as="targetPoint"/>
                        <Array as="points">
                            <mxPoint x="108" y="650"/>
                        </Array>
                    </mxGeometry>
                </mxCell>
                <mxCell id="403" value="m" style="edgeLabel;html=1;align=center;verticalAlign=middle;resizable=0;points=[];fontColor=#000000;" parent="283" vertex="1" connectable="0">
                    <mxGeometry x="-0.4688" y="-2" relative="1" as="geometry">
                        <mxPoint x="14" y="1" as="offset"/>
                    </mxGeometry>
                </mxCell>
                <mxCell id="93" value="Department" style="ellipse;whiteSpace=wrap;html=1;align=center;" parent="1" vertex="1">
                    <mxGeometry x="-1225" y="-40" width="100" height="40" as="geometry"/>
                </mxCell>
                <mxCell id="65" value="Warehouse ID" style="ellipse;whiteSpace=wrap;html=1;align=center;fontStyle=4;" parent="1" vertex="1">
                    <mxGeometry x="-850" y="566" width="100" height="42" as="geometry"/>
                </mxCell>
                <mxCell id="457" style="edgeStyle=none;html=1;exitX=0.75;exitY=1;exitDx=0;exitDy=0;entryX=0;entryY=0.5;entryDx=0;entryDy=0;endArrow=none;endFill=0;shape=link;" parent="1" source="63" target="452" edge="1">
                    <mxGeometry relative="1" as="geometry">
                        <Array as="points">
                            <mxPoint x="-635" y="780"/>
                            <mxPoint x="220" y="780"/>
                        </Array>
                    </mxGeometry>
                </mxCell>
                <mxCell id="63" value="Warehouse" style="whiteSpace=wrap;html=1;align=center;" parent="1" vertex="1">
                    <mxGeometry x="-710" y="608" width="100" height="42" as="geometry"/>
                </mxCell>
                <mxCell id="252" style="edgeStyle=none;html=1;startArrow=none;startFill=0;endArrow=none;endFill=0;entryX=0.5;entryY=1;entryDx=0;entryDy=0;shape=link;" parent="1" source="248" target="195" edge="1">
                    <mxGeometry relative="1" as="geometry">
                        <mxPoint x="-947.5517241379312" y="400" as="targetPoint"/>
                    </mxGeometry>
                </mxCell>
                <mxCell id="400" value="m" style="edgeLabel;html=1;align=center;verticalAlign=middle;resizable=0;points=[];fontColor=#000000;" parent="252" vertex="1" connectable="0">
                    <mxGeometry x="0.19" relative="1" as="geometry">
                        <mxPoint x="11" y="-1" as="offset"/>
                    </mxGeometry>
                </mxCell>
                <mxCell id="101" value="Residential Address" style="ellipse;whiteSpace=wrap;html=1;align=center;" parent="1" vertex="1">
                    <mxGeometry x="-838.75" y="100" width="100" height="40" as="geometry"/>
                </mxCell>
                <mxCell id="95" value="Email Address" style="ellipse;whiteSpace=wrap;html=1;align=center;" parent="1" vertex="1">
                    <mxGeometry x="-825" width="100" height="40" as="geometry"/>
                </mxCell>
                <mxCell id="164" style="edgeStyle=none;html=1;exitX=1;exitY=0.25;exitDx=0;exitDy=0;entryX=0;entryY=0.658;entryDx=0;entryDy=0;entryPerimeter=0;endArrow=none;endFill=0;" parent="1" source="145" target="95" edge="1">
                    <mxGeometry relative="1" as="geometry"/>
                </mxCell>
                <mxCell id="154" style="edgeStyle=none;html=1;exitX=0;exitY=0.5;exitDx=0;exitDy=0;startArrow=none;startFill=0;endArrow=none;endFill=0;entryX=1;entryY=0.5;entryDx=0;entryDy=0;" parent="1" source="145" target="94" edge="1">
                    <mxGeometry relative="1" as="geometry">
                        <mxPoint x="-1145" y="40" as="targetPoint"/>
                    </mxGeometry>
                </mxCell>
                <mxCell id="159" style="edgeStyle=none;html=1;exitX=1;exitY=0.75;exitDx=0;exitDy=0;entryX=0.209;entryY=0.128;entryDx=0;entryDy=0;entryPerimeter=0;startArrow=none;startFill=0;endArrow=none;endFill=0;" parent="1" source="145" target="101" edge="1">
                    <mxGeometry relative="1" as="geometry"/>
                </mxCell>
                <mxCell id="148" style="edgeStyle=none;html=1;exitX=1;exitY=0;exitDx=0;exitDy=0;entryX=0;entryY=0.5;entryDx=0;entryDy=0;startArrow=none;startFill=0;endArrow=none;endFill=0;" parent="1" source="145" target="92" edge="1">
                    <mxGeometry relative="1" as="geometry"/>
                </mxCell>
                <mxCell id="100" value="Date of Birth" style="ellipse;whiteSpace=wrap;html=1;align=center;" parent="1" vertex="1">
                    <mxGeometry x="-1225" y="110" width="100" height="40" as="geometry"/>
                </mxCell>
                <mxCell id="149" style="edgeStyle=none;html=1;exitX=0.25;exitY=0;exitDx=0;exitDy=0;entryX=0.75;entryY=1;entryDx=0;entryDy=0;entryPerimeter=0;startArrow=none;startFill=0;endArrow=none;endFill=0;" parent="1" source="145" edge="1">
                    <mxGeometry relative="1" as="geometry">
                        <mxPoint x="-1060" y="-30" as="targetPoint"/>
                    </mxGeometry>
                </mxCell>
                <mxCell id="147" style="edgeStyle=none;html=1;exitX=0.646;exitY=-0.013;exitDx=0;exitDy=0;entryX=0;entryY=1;entryDx=0;entryDy=0;startArrow=none;startFill=0;endArrow=none;endFill=0;exitPerimeter=0;" parent="1" source="89" edge="1">
                    <mxGeometry relative="1" as="geometry">
                        <mxPoint x="-920.2327913248396" y="-45.80901460527275" as="targetPoint"/>
                    </mxGeometry>
                </mxCell>
                <mxCell id="243" value="Age" style="ellipse;whiteSpace=wrap;html=1;align=center;dashed=1;" parent="1" vertex="1">
                    <mxGeometry x="-1145" y="150" width="100" height="40" as="geometry"/>
                </mxCell>
                <mxCell id="91" value="Date of Joining" style="ellipse;whiteSpace=wrap;html=1;align=center;" parent="1" vertex="1">
                    <mxGeometry x="-1022.5" y="-100" width="100" height="40" as="geometry"/>
                </mxCell>
                <mxCell id="415" style="edgeStyle=none;html=1;exitX=1;exitY=0.5;exitDx=0;exitDy=0;fontColor=#000000;endArrow=none;endFill=0;entryX=0.5;entryY=1;entryDx=0;entryDy=0;" parent="1" source="261" target="413" edge="1">
                    <mxGeometry relative="1" as="geometry">
                        <mxPoint x="-480" y="380" as="targetPoint"/>
                        <Array as="points">
                            <mxPoint x="-480" y="380"/>
                        </Array>
                    </mxGeometry>
                </mxCell>
                <mxCell id="464" value="m" style="edgeLabel;html=1;align=center;verticalAlign=middle;resizable=0;points=[];fontColor=#000000;" parent="415" vertex="1" connectable="0">
                    <mxGeometry x="-0.415" y="-4" relative="1" as="geometry">
                        <mxPoint x="6" y="-14" as="offset"/>
                    </mxGeometry>
                </mxCell>
                <mxCell id="92" value="Position" style="ellipse;whiteSpace=wrap;html=1;align=center;" parent="1" vertex="1">
                    <mxGeometry x="-850" y="-40" width="100" height="40" as="geometry"/>
                </mxCell>
                <mxCell id="96" value="Name" style="ellipse;whiteSpace=wrap;html=1;align=center;" parent="1" vertex="1">
                    <mxGeometry x="-805" y="50" width="100" height="40" as="geometry"/>
                </mxCell>
                <mxCell id="156" style="edgeStyle=none;html=1;exitX=1;exitY=0.5;exitDx=0;exitDy=0;entryX=0;entryY=0.5;entryDx=0;entryDy=0;endArrow=none;endFill=0;" parent="1" source="96" target="98" edge="1">
                    <mxGeometry relative="1" as="geometry"/>
                </mxCell>
                <mxCell id="116" value="Pin Code" style="ellipse;whiteSpace=wrap;html=1;align=center;" parent="1" vertex="1">
                    <mxGeometry x="-938.75" y="120" width="100" height="40" as="geometry"/>
                </mxCell>
                <mxCell id="200" value="Locality" style="ellipse;whiteSpace=wrap;html=1;align=center;" parent="1" vertex="1">
                    <mxGeometry x="-711.25" y="150" width="100" height="40" as="geometry"/>
                </mxCell>
                <mxCell id="97" value="First Name" style="ellipse;whiteSpace=wrap;html=1;align=center;" parent="1" vertex="1">
                    <mxGeometry x="-705" y="10" width="100" height="40" as="geometry"/>
                </mxCell>
                <mxCell id="153" style="edgeStyle=none;html=1;exitX=0;exitY=1;exitDx=0;exitDy=0;startArrow=none;startFill=0;endArrow=none;endFill=0;entryX=1.01;entryY=0.3;entryDx=0;entryDy=0;entryPerimeter=0;" parent="1" source="145" target="100" edge="1">
                    <mxGeometry relative="1" as="geometry">
                        <mxPoint x="-1115" y="120" as="targetPoint"/>
                    </mxGeometry>
                </mxCell>
                <mxCell id="157" value="" style="edgeStyle=none;html=1;startArrow=none;startFill=0;endArrow=none;endFill=0;" parent="1" source="145" target="96" edge="1">
                    <mxGeometry relative="1" as="geometry"/>
                </mxCell>
                <mxCell id="98" value="Last Name" style="ellipse;whiteSpace=wrap;html=1;align=center;" parent="1" vertex="1">
                    <mxGeometry x="-685" y="60" width="100" height="40" as="geometry"/>
                </mxCell>
                <mxCell id="206" style="edgeStyle=none;html=1;exitX=0.5;exitY=1;exitDx=0;exitDy=0;entryX=0.5;entryY=0;entryDx=0;entryDy=0;endArrow=none;endFill=0;" parent="1" source="101" target="201" edge="1">
                    <mxGeometry relative="1" as="geometry"/>
                </mxCell>
                <mxCell id="112" value="House Number" style="ellipse;whiteSpace=wrap;html=1;align=center;" parent="1" vertex="1">
                    <mxGeometry x="-711.25" y="110" width="100" height="40" as="geometry"/>
                </mxCell>
                <mxCell id="150" style="edgeStyle=none;html=1;exitX=0;exitY=0;exitDx=0;exitDy=0;entryX=0.95;entryY=0.8;entryDx=0;entryDy=0;entryPerimeter=0;startArrow=none;startFill=0;endArrow=none;endFill=0;" parent="1" source="145" target="93" edge="1">
                    <mxGeometry relative="1" as="geometry"/>
                </mxCell>
                <mxCell id="201" value="City" style="ellipse;whiteSpace=wrap;html=1;align=center;" parent="1" vertex="1">
                    <mxGeometry x="-825" y="170" width="100" height="40" as="geometry"/>
                </mxCell>
                <mxCell id="244" style="edgeStyle=none;html=1;exitX=0.5;exitY=0;exitDx=0;exitDy=0;startArrow=none;startFill=0;endArrow=none;endFill=0;entryX=0;entryY=1;entryDx=0;entryDy=0;" parent="1" source="243" target="145" edge="1">
                    <mxGeometry relative="1" as="geometry">
                        <mxPoint x="-1030" y="110" as="targetPoint"/>
                    </mxGeometry>
                </mxCell>
                <mxCell id="163" style="edgeStyle=none;html=1;exitX=1;exitY=0;exitDx=0;exitDy=0;entryX=0.049;entryY=0.742;entryDx=0;entryDy=0;entryPerimeter=0;endArrow=none;endFill=0;" parent="1" source="96" target="97" edge="1">
                    <mxGeometry relative="1" as="geometry"/>
                </mxCell>
                <mxCell id="152" style="edgeStyle=none;html=1;exitX=0;exitY=0.75;exitDx=0;exitDy=0;startArrow=none;startFill=0;endArrow=none;endFill=0;entryX=1;entryY=0.5;entryDx=0;entryDy=0;" parent="1" source="145" target="99" edge="1">
                    <mxGeometry relative="1" as="geometry">
                        <mxPoint x="-1135" y="80" as="targetPoint"/>
                    </mxGeometry>
                </mxCell>
                <mxCell id="434" style="edgeStyle=none;html=1;exitX=0.5;exitY=0;exitDx=0;exitDy=0;entryX=0.5;entryY=1;entryDx=0;entryDy=0;endArrow=none;endFill=0;" parent="1" source="256" target="196" edge="1">
                    <mxGeometry relative="1" as="geometry">
                        <mxPoint x="-1119.2941176470586" y="1110" as="targetPoint"/>
                    </mxGeometry>
                </mxCell>
                <mxCell id="459" value="1" style="edgeLabel;html=1;align=center;verticalAlign=middle;resizable=0;points=[];fontColor=#000000;" parent="434" vertex="1" connectable="0">
                    <mxGeometry x="0.2667" y="1" relative="1" as="geometry">
                        <mxPoint x="19" as="offset"/>
                    </mxGeometry>
                </mxCell>
                <mxCell id="446" style="edgeStyle=none;html=1;exitX=0.5;exitY=1;exitDx=0;exitDy=0;endArrow=none;endFill=0;entryX=0.75;entryY=1;entryDx=0;entryDy=0;shape=link;" parent="1" source="256" target="rCRO5mDwt1Ey6ZGiLpo1-198" edge="1">
                    <mxGeometry relative="1" as="geometry">
                        <mxPoint x="715" y="1080" as="targetPoint"/>
                        <Array as="points">
                            <mxPoint x="-1115" y="1420"/>
                            <mxPoint x="-67" y="1420"/>
                        </Array>
                    </mxGeometry>
                </mxCell>
                <mxCell id="448" style="edgeStyle=none;html=1;exitX=1;exitY=0.5;exitDx=0;exitDy=0;fontColor=#000000;startArrow=none;startFill=0;endArrow=none;endFill=0;entryX=0.5;entryY=1;entryDx=0;entryDy=0;" parent="1" source="256" target="63" edge="1">
                    <mxGeometry relative="1" as="geometry">
                        <mxPoint x="-680" y="930" as="targetPoint"/>
                        <Array as="points">
                            <mxPoint x="-870" y="1260"/>
                            <mxPoint x="-660" y="1260"/>
                        </Array>
                    </mxGeometry>
                </mxCell>
                <mxCell id="461" value="1" style="edgeLabel;html=1;align=center;verticalAlign=middle;resizable=0;points=[];fontColor=#000000;" parent="448" connectable="0" vertex="1">
                    <mxGeometry x="-0.5924" y="-3" relative="1" as="geometry">
                        <mxPoint x="-150" y="-13" as="offset"/>
                    </mxGeometry>
                </mxCell>
                <mxCell id="681" style="edgeStyle=none;html=1;exitX=0;exitY=1;exitDx=0;exitDy=0;endArrow=none;endFill=0;" edge="1" parent="1" source="256">
                    <mxGeometry relative="1" as="geometry">
                        <mxPoint x="-1220" y="1320" as="targetPoint"/>
                    </mxGeometry>
                </mxCell>
                <mxCell id="256" value="Delivery" style="shape=rhombus;perimeter=rhombusPerimeter;whiteSpace=wrap;html=1;align=center;" parent="1" vertex="1">
                    <mxGeometry x="-1175" y="1230" width="120" height="60" as="geometry"/>
                </mxCell>
                <mxCell id="99" value="Gender" style="ellipse;whiteSpace=wrap;html=1;align=center;" parent="1" vertex="1">
                    <mxGeometry x="-1255" y="60" width="100" height="40" as="geometry"/>
                </mxCell>
                <mxCell id="161" style="edgeStyle=none;html=1;startArrow=none;startFill=0;endArrow=none;endFill=0;entryX=0;entryY=0.5;entryDx=0;entryDy=0;exitX=1;exitY=0.5;exitDx=0;exitDy=0;" parent="1" source="101" target="112" edge="1">
                    <mxGeometry relative="1" as="geometry">
                        <mxPoint x="-728.75" y="120" as="targetPoint"/>
                    </mxGeometry>
                </mxCell>
                <mxCell id="94" value="Salary" style="ellipse;whiteSpace=wrap;html=1;align=center;" parent="1" vertex="1">
                    <mxGeometry x="-1255" y="10" width="100" height="40" as="geometry"/>
                </mxCell>
                <mxCell id="399" style="edgeStyle=none;html=1;exitX=1;exitY=0.5;exitDx=0;exitDy=0;fontColor=#000000;endArrow=none;endFill=0;shape=link;" parent="1" source="248" edge="1">
                    <mxGeometry relative="1" as="geometry">
                        <mxPoint x="-710" y="629" as="targetPoint"/>
                    </mxGeometry>
                </mxCell>
                <mxCell id="401" value="1" style="edgeLabel;html=1;align=center;verticalAlign=middle;resizable=0;points=[];fontColor=#000000;" parent="399" vertex="1" connectable="0">
                    <mxGeometry x="-0.1817" y="1" relative="1" as="geometry">
                        <mxPoint x="-43" y="12" as="offset"/>
                    </mxGeometry>
                </mxCell>
                <mxCell id="269" style="edgeStyle=none;html=1;exitX=0.25;exitY=1;exitDx=0;exitDy=0;startArrow=none;startFill=0;endArrow=none;endFill=0;entryX=1;entryY=0.5;entryDx=0;entryDy=0;shape=link;" parent="1" source="rCRO5mDwt1Ey6ZGiLpo1-41" target="267" edge="1">
                    <mxGeometry relative="1" as="geometry">
                        <mxPoint x="530" y="800" as="targetPoint"/>
                        <Array as="points">
                            <mxPoint x="778" y="720"/>
                            <mxPoint x="390" y="720"/>
                            <mxPoint x="390" y="650"/>
                        </Array>
                    </mxGeometry>
                </mxCell>
                <mxCell id="404" value="n" style="edgeLabel;html=1;align=center;verticalAlign=middle;resizable=0;points=[];fontColor=#000000;" parent="269" vertex="1" connectable="0">
                    <mxGeometry x="-0.699" relative="1" as="geometry">
                        <mxPoint x="-21" y="-11" as="offset"/>
                    </mxGeometry>
                </mxCell>
                <mxCell id="251" value="" style="edgeStyle=none;html=1;startArrow=none;startFill=0;endArrow=none;endFill=0;" parent="1" source="91" target="145" edge="1">
                    <mxGeometry relative="1" as="geometry"/>
                </mxCell>
                <mxCell id="162" style="edgeStyle=none;html=1;exitX=1;exitY=1;exitDx=0;exitDy=0;entryX=0;entryY=0.5;entryDx=0;entryDy=0;startArrow=none;startFill=0;endArrow=none;endFill=0;" parent="1" source="101" target="200" edge="1">
                    <mxGeometry relative="1" as="geometry">
                        <mxPoint x="-723.9736631845167" y="175.8053894629561" as="targetPoint"/>
                    </mxGeometry>
                </mxCell>
                <mxCell id="376" style="edgeStyle=none;html=1;exitX=0.5;exitY=1;exitDx=0;exitDy=0;endArrow=none;endFill=0;entryX=1;entryY=0.5;entryDx=0;entryDy=0;shape=link;" parent="1" source="145" target="617" edge="1">
                    <mxGeometry relative="1" as="geometry">
                        <mxPoint x="-972.5" y="200" as="targetPoint"/>
                    </mxGeometry>
                </mxCell>
                <mxCell id="90" value="Performance" style="ellipse;whiteSpace=wrap;html=1;align=center;" parent="1" vertex="1">
                    <mxGeometry x="-1115" y="-70" width="100" height="40" as="geometry"/>
                </mxCell>
                <mxCell id="246" style="edgeStyle=none;html=1;exitX=1;exitY=0.5;exitDx=0;exitDy=0;startArrow=none;startFill=0;endArrow=none;endFill=0;" parent="1" source="245" edge="1">
                    <mxGeometry relative="1" as="geometry">
                        <mxPoint x="750" y="630" as="targetPoint"/>
                    </mxGeometry>
                </mxCell>
                <mxCell id="299" value="" style="group" parent="1" vertex="1" connectable="0">
                    <mxGeometry x="-250" y="415.5" width="640" height="251.5" as="geometry"/>
                </mxCell>
                <mxCell id="227" value="&lt;u&gt;Vendor ID&lt;/u&gt;" style="ellipse;whiteSpace=wrap;html=1;align=center;" parent="299" vertex="1">
                    <mxGeometry x="340" y="10" width="100" height="40" as="geometry"/>
                </mxCell>
                <mxCell id="233" value="Name" style="ellipse;whiteSpace=wrap;html=1;align=center;" parent="299" vertex="1">
                    <mxGeometry x="440" y="40" width="100" height="40" as="geometry"/>
                </mxCell>
                <mxCell id="239" style="edgeStyle=none;html=1;exitX=1;exitY=0;exitDx=0;exitDy=0;entryX=0.314;entryY=1.002;entryDx=0;entryDy=0;entryPerimeter=0;startArrow=none;startFill=0;endArrow=none;endFill=0;" parent="299" source="225" target="233" edge="1">
                    <mxGeometry relative="1" as="geometry"/>
                </mxCell>
                <mxCell id="225" value="Vendor" style="whiteSpace=wrap;html=1;align=center;" parent="299" vertex="1">
                    <mxGeometry x="300" y="110" width="115" height="59" as="geometry"/>
                </mxCell>
                <mxCell id="232" style="edgeStyle=none;html=1;exitX=0.5;exitY=0;exitDx=0;exitDy=0;startArrow=none;startFill=0;endArrow=none;endFill=0;entryX=0.5;entryY=1;entryDx=0;entryDy=0;" parent="299" source="225" target="227" edge="1">
                    <mxGeometry relative="1" as="geometry">
                        <mxPoint x="358" y="40" as="targetPoint"/>
                    </mxGeometry>
                </mxCell>
                <mxCell id="284" value="Pin Code" style="ellipse;whiteSpace=wrap;html=1;align=center;" parent="299" vertex="1">
                    <mxGeometry x="50" y="92.25" width="100" height="42" as="geometry"/>
                </mxCell>
                <mxCell id="285" value="Address" style="ellipse;whiteSpace=wrap;html=1;align=center;" parent="299" vertex="1">
                    <mxGeometry x="220" y="40.25" width="100" height="42" as="geometry"/>
                </mxCell>
                <mxCell id="293" style="edgeStyle=none;html=1;exitX=0.25;exitY=0;exitDx=0;exitDy=0;entryX=1;entryY=0.656;entryDx=0;entryDy=0;entryPerimeter=0;startArrow=none;startFill=0;endArrow=none;endFill=0;" parent="299" source="225" target="285" edge="1">
                    <mxGeometry relative="1" as="geometry"/>
                </mxCell>
                <mxCell id="295" style="edgeStyle=none;html=1;startArrow=none;startFill=0;endArrow=none;endFill=0;exitX=1;exitY=0;exitDx=0;exitDy=0;entryX=0;entryY=0.5;entryDx=0;entryDy=0;" parent="299" source="284" target="285" edge="1">
                    <mxGeometry relative="1" as="geometry">
                        <mxPoint x="140.0000000000009" y="101.24999999999955" as="sourcePoint"/>
                    </mxGeometry>
                </mxCell>
                <mxCell id="296" style="edgeStyle=none;html=1;entryX=0.014;entryY=0.3;entryDx=0;entryDy=0;entryPerimeter=0;startArrow=none;startFill=0;endArrow=none;endFill=0;exitX=1;exitY=0.5;exitDx=0;exitDy=0;" parent="299" source="286" target="285" edge="1">
                    <mxGeometry relative="1" as="geometry"/>
                </mxCell>
                <mxCell id="286" value="Plot Number" style="ellipse;whiteSpace=wrap;html=1;align=center;" parent="299" vertex="1">
                    <mxGeometry x="60" y="11.75" width="100" height="42" as="geometry"/>
                </mxCell>
                <mxCell id="287" value="City" style="ellipse;whiteSpace=wrap;html=1;align=center;" parent="299" vertex="1">
                    <mxGeometry x="160" y="-28.25" width="100" height="42" as="geometry"/>
                </mxCell>
                <mxCell id="297" style="edgeStyle=none;html=1;exitX=0.5;exitY=0;exitDx=0;exitDy=0;entryX=1;entryY=1;entryDx=0;entryDy=0;startArrow=none;startFill=0;endArrow=none;endFill=0;" parent="299" source="285" target="287" edge="1">
                    <mxGeometry relative="1" as="geometry"/>
                </mxCell>
                <mxCell id="632" value="password" style="ellipse;whiteSpace=wrap;html=1;align=center;" parent="299" vertex="1">
                    <mxGeometry x="460" y="92.25" width="100" height="40" as="geometry"/>
                </mxCell>
                <mxCell id="631" style="edgeStyle=none;html=1;exitX=1;exitY=0.5;exitDx=0;exitDy=0;endArrow=none;endFill=0;entryX=0;entryY=0.5;entryDx=0;entryDy=0;" parent="299" source="225" target="632" edge="1">
                    <mxGeometry relative="1" as="geometry">
                        <mxPoint x="470" y="124.5" as="targetPoint"/>
                    </mxGeometry>
                </mxCell>
                <mxCell id="638" value="Quantity" style="ellipse;whiteSpace=wrap;html=1;align=center;" parent="299" vertex="1">
                    <mxGeometry x="540" y="144.5" width="100" height="40" as="geometry"/>
                </mxCell>
                <mxCell id="679" value="email_address" style="ellipse;whiteSpace=wrap;html=1;align=center;" vertex="1" parent="299">
                    <mxGeometry x="170" y="94.25" width="100" height="40" as="geometry"/>
                </mxCell>
                <mxCell id="168" style="edgeStyle=none;html=1;startArrow=none;startFill=0;endArrow=none;endFill=0;entryX=1;entryY=0.5;entryDx=0;entryDy=0;exitX=0;exitY=0.5;exitDx=0;exitDy=0;" parent="1" source="101" target="116" edge="1">
                    <mxGeometry relative="1" as="geometry">
                        <mxPoint x="-868.75" y="130" as="targetPoint"/>
                    </mxGeometry>
                </mxCell>
                <mxCell id="591" style="edgeStyle=none;html=1;exitX=0.5;exitY=1;exitDx=0;exitDy=0;entryX=1;entryY=1;entryDx=0;entryDy=0;endArrow=none;endFill=0;shape=link;" parent="1" source="272" target="rCRO5mDwt1Ey6ZGiLpo1-198" edge="1">
                    <mxGeometry relative="1" as="geometry">
                        <Array as="points">
                            <mxPoint x="960" y="1190"/>
                            <mxPoint x="-40" y="1190"/>
                        </Array>
                    </mxGeometry>
                </mxCell>
                <mxCell id="600" value="m" style="edgeLabel;html=1;align=center;verticalAlign=middle;resizable=0;points=[];" parent="591" vertex="1" connectable="0">
                    <mxGeometry x="-0.2272" y="4" relative="1" as="geometry">
                        <mxPoint x="8" y="6" as="offset"/>
                    </mxGeometry>
                </mxCell>
                <mxCell id="596" style="edgeStyle=none;html=1;exitX=0.5;exitY=0;exitDx=0;exitDy=0;entryX=0.5;entryY=1;entryDx=0;entryDy=0;endArrow=none;endFill=0;" parent="1" source="272" target="rCRO5mDwt1Ey6ZGiLpo1-41" edge="1">
                    <mxGeometry relative="1" as="geometry">
                        <Array as="points">
                            <mxPoint x="960" y="800"/>
                            <mxPoint x="805" y="800"/>
                        </Array>
                    </mxGeometry>
                </mxCell>
                <mxCell id="598" style="edgeStyle=none;html=1;exitX=1;exitY=0.5;exitDx=0;exitDy=0;entryX=0;entryY=0.5;entryDx=0;entryDy=0;endArrow=none;endFill=0;" parent="1" source="272" target="597" edge="1">
                    <mxGeometry relative="1" as="geometry"/>
                </mxCell>
                <mxCell id="272" value="Includes" style="shape=rhombus;perimeter=rhombusPerimeter;whiteSpace=wrap;html=1;align=center;" parent="1" vertex="1">
                    <mxGeometry x="900" y="810" width="120" height="60" as="geometry"/>
                </mxCell>
                <mxCell id="306" style="edgeStyle=none;html=1;entryX=1;entryY=0.5;entryDx=0;entryDy=0;startArrow=none;startFill=0;endArrow=none;endFill=0;" parent="1" target="305" edge="1">
                    <mxGeometry relative="1" as="geometry"/>
                </mxCell>
                <mxCell id="343" style="edgeStyle=none;html=1;exitX=0.251;exitY=1.046;exitDx=0;exitDy=0;endArrow=none;endFill=0;exitPerimeter=0;entryX=0;entryY=0;entryDx=0;entryDy=0;" parent="1" source="rCRO5mDwt1Ey6ZGiLpo1-137" target="305" edge="1">
                    <mxGeometry relative="1" as="geometry">
                        <Array as="points">
                            <mxPoint x="358" y="320"/>
                            <mxPoint x="-307" y="320"/>
                        </Array>
                        <mxPoint x="-300" y="770" as="targetPoint"/>
                    </mxGeometry>
                </mxCell>
                <mxCell id="546" value="1" style="edgeLabel;html=1;align=center;verticalAlign=middle;resizable=0;points=[];" parent="343" connectable="0" vertex="1">
                    <mxGeometry x="0.8032" y="3" relative="1" as="geometry">
                        <mxPoint x="4" y="-15" as="offset"/>
                    </mxGeometry>
                </mxCell>
                <mxCell id="rCRO5mDwt1Ey6ZGiLpo1-29" value="Has" style="shape=rhombus;double=1;perimeter=rhombusPerimeter;whiteSpace=wrap;html=1;align=center;rotation=0;" parent="1" vertex="1">
                    <mxGeometry x="450" y="300" width="120" height="60" as="geometry"/>
                </mxCell>
                <mxCell id="339" value="" style="group" parent="1" vertex="1" connectable="0">
                    <mxGeometry x="590" y="310" width="280" height="100" as="geometry"/>
                </mxCell>
                <mxCell id="rCRO5mDwt1Ey6ZGiLpo1-24" value="Shopping Cart" style="shape=ext;margin=3;double=1;whiteSpace=wrap;html=1;align=center;" parent="339" vertex="1">
                    <mxGeometry x="50" width="100" height="40" as="geometry"/>
                </mxCell>
                <mxCell id="390" value="m" style="text;html=1;align=center;verticalAlign=middle;resizable=0;points=[];autosize=1;strokeColor=none;fillColor=none;fontColor=#000000;" parent="339" vertex="1">
                    <mxGeometry x="245" width="30" height="20" as="geometry"/>
                </mxCell>
                <mxCell id="658" value="contains" style="text;html=1;align=center;verticalAlign=middle;resizable=0;points=[];autosize=1;strokeColor=none;fillColor=none;" parent="339" vertex="1">
                    <mxGeometry x="165" width="60" height="20" as="geometry"/>
                </mxCell>
                <mxCell id="344" style="edgeStyle=none;html=1;endArrow=none;endFill=0;entryX=0.314;entryY=0.792;entryDx=0;entryDy=0;exitX=0.25;exitY=1;exitDx=0;exitDy=0;entryPerimeter=0;shape=link;" parent="1" source="rCRO5mDwt1Ey6ZGiLpo1-198" target="305" edge="1">
                    <mxGeometry relative="1" as="geometry">
                        <mxPoint x="664.9230769230771" y="1390" as="targetPoint"/>
                        <Array as="points">
                            <mxPoint x="-122" y="1350"/>
                            <mxPoint x="-299" y="1350"/>
                        </Array>
                        <mxPoint x="650" y="1030" as="sourcePoint"/>
                    </mxGeometry>
                </mxCell>
                <mxCell id="482" value="m" style="edgeLabel;html=1;align=center;verticalAlign=middle;resizable=0;points=[];" parent="344" connectable="0" vertex="1">
                    <mxGeometry x="0.8718" y="-5" relative="1" as="geometry">
                        <mxPoint x="2" y="-7" as="offset"/>
                    </mxGeometry>
                </mxCell>
                <mxCell id="377" style="edgeStyle=none;html=1;entryX=0.5;entryY=0;entryDx=0;entryDy=0;endArrow=none;endFill=0;exitX=0.5;exitY=0;exitDx=0;exitDy=0;" parent="1" source="617" target="196" edge="1">
                    <mxGeometry relative="1" as="geometry">
                        <mxPoint x="-1120" y="350" as="targetPoint"/>
                        <Array as="points">
                            <mxPoint x="-1115" y="230"/>
                        </Array>
                        <mxPoint x="-1030" y="260" as="sourcePoint"/>
                    </mxGeometry>
                </mxCell>
                <mxCell id="635" style="edgeStyle=none;html=1;exitX=0.75;exitY=0;exitDx=0;exitDy=0;entryX=0;entryY=1;entryDx=0;entryDy=0;endArrow=none;endFill=0;" parent="1" source="145" target="633" edge="1">
                    <mxGeometry relative="1" as="geometry"/>
                </mxCell>
                <mxCell id="145" value="Employee" style="whiteSpace=wrap;html=1;align=center;" parent="1" vertex="1">
                    <mxGeometry x="-1035" y="20" width="115" height="70" as="geometry"/>
                </mxCell>
                <mxCell id="381" style="edgeStyle=none;html=1;entryX=0.388;entryY=-0.029;entryDx=0;entryDy=0;entryPerimeter=0;endArrow=none;endFill=0;exitX=0;exitY=0.5;exitDx=0;exitDy=0;" parent="1" source="617" target="195" edge="1">
                    <mxGeometry relative="1" as="geometry">
                        <mxPoint x="-980" y="300" as="sourcePoint"/>
                    </mxGeometry>
                </mxCell>
                <mxCell id="382" style="edgeStyle=none;html=1;endArrow=none;endFill=0;entryX=0.35;entryY=0;entryDx=0;entryDy=0;entryPerimeter=0;exitX=0.5;exitY=1;exitDx=0;exitDy=0;" parent="1" source="617" target="261" edge="1">
                    <mxGeometry relative="1" as="geometry">
                        <mxPoint x="-760" y="340" as="targetPoint"/>
                        <Array as="points">
                            <mxPoint x="-790" y="230"/>
                        </Array>
                        <mxPoint x="-960" y="280" as="sourcePoint"/>
                    </mxGeometry>
                </mxCell>
                <mxCell id="388" value="n" style="text;html=1;align=center;verticalAlign=middle;resizable=0;points=[];autosize=1;strokeColor=none;fillColor=none;fontColor=#000000;" parent="1" vertex="1">
                    <mxGeometry x="1020" y="380" width="20" height="20" as="geometry"/>
                </mxCell>
                <mxCell id="248" value="Works in" style="shape=rhombus;perimeter=rhombusPerimeter;whiteSpace=wrap;html=1;align=center;" parent="1" vertex="1">
                    <mxGeometry x="-1027.5" y="599" width="120" height="60" as="geometry"/>
                </mxCell>
                <mxCell id="419" style="edgeStyle=none;html=1;exitX=0.5;exitY=0;exitDx=0;exitDy=0;fontColor=#000000;startArrow=none;startFill=0;endArrow=none;endFill=0;entryX=0.5;entryY=1;entryDx=0;entryDy=0;" parent="1" source="413" target="420" edge="1">
                    <mxGeometry relative="1" as="geometry">
                        <mxPoint x="-510" y="230" as="targetPoint"/>
                    </mxGeometry>
                </mxCell>
                <mxCell id="414" style="edgeStyle=none;html=1;fontColor=#000000;endArrow=none;endFill=0;entryX=1;entryY=1;entryDx=0;entryDy=0;exitX=0.5;exitY=1;exitDx=0;exitDy=0;" parent="1" source="rCRO5mDwt1Ey6ZGiLpo1-198" target="413" edge="1">
                    <mxGeometry relative="1" as="geometry">
                        <mxPoint x="-430" y="980" as="targetPoint"/>
                        <Array as="points">
                            <mxPoint x="-95" y="1380"/>
                            <mxPoint x="-540" y="1380"/>
                            <mxPoint x="-540" y="640"/>
                            <mxPoint x="-370" y="640"/>
                            <mxPoint x="-370" y="400"/>
                            <mxPoint x="-450" y="400"/>
                        </Array>
                    </mxGeometry>
                </mxCell>
                <mxCell id="473" value="p" style="edgeLabel;html=1;align=center;verticalAlign=middle;resizable=0;points=[];" parent="414" connectable="0" vertex="1">
                    <mxGeometry x="0.9576" y="-5" relative="1" as="geometry">
                        <mxPoint x="5" y="-5" as="offset"/>
                    </mxGeometry>
                </mxCell>
                <mxCell id="416" value="" style="edgeStyle=none;html=1;exitX=0.082;exitY=1;exitDx=0;exitDy=0;entryX=1;entryY=0.5;entryDx=0;entryDy=0;endArrow=none;endFill=0;startArrow=none;startFill=0;exitPerimeter=0;" parent="1" source="rCRO5mDwt1Ey6ZGiLpo1-137" target="413" edge="1">
                    <mxGeometry relative="1" as="geometry">
                        <Array as="points">
                            <mxPoint x="340" y="260"/>
                            <mxPoint x="340" y="290"/>
                        </Array>
                    </mxGeometry>
                </mxCell>
                <mxCell id="472" value="1" style="edgeLabel;html=1;align=center;verticalAlign=middle;resizable=0;points=[];" parent="416" connectable="0" vertex="1">
                    <mxGeometry x="0.8068" y="2" relative="1" as="geometry">
                        <mxPoint x="83" y="-2" as="offset"/>
                    </mxGeometry>
                </mxCell>
                <mxCell id="261" value="Service Employees" style="whiteSpace=wrap;html=1;align=center;" parent="1" vertex="1">
                    <mxGeometry x="-825" y="360" width="100" height="40" as="geometry"/>
                </mxCell>
                <mxCell id="420" value="&lt;u&gt;Complaint number&lt;/u&gt;" style="ellipse;whiteSpace=wrap;html=1;align=center;" parent="1" vertex="1">
                    <mxGeometry x="-530" y="140" width="100" height="40" as="geometry"/>
                </mxCell>
                <mxCell id="684" style="edgeStyle=none;html=1;exitX=1;exitY=0;exitDx=0;exitDy=0;endArrow=none;endFill=0;entryX=0.5;entryY=1;entryDx=0;entryDy=0;" edge="1" parent="1" source="413" target="685">
                    <mxGeometry relative="1" as="geometry">
                        <mxPoint x="-400" y="200" as="targetPoint"/>
                    </mxGeometry>
                </mxCell>
                <mxCell id="686" style="edgeStyle=none;html=1;exitX=0;exitY=0.5;exitDx=0;exitDy=0;endArrow=none;endFill=0;entryX=0.7;entryY=1;entryDx=0;entryDy=0;entryPerimeter=0;" edge="1" parent="1" source="413" target="688">
                    <mxGeometry relative="1" as="geometry">
                        <mxPoint x="-590" y="270" as="targetPoint"/>
                    </mxGeometry>
                </mxCell>
                <mxCell id="689" style="edgeStyle=none;html=1;exitX=0;exitY=0;exitDx=0;exitDy=0;endArrow=none;endFill=0;" edge="1" parent="1" source="413">
                    <mxGeometry relative="1" as="geometry">
                        <mxPoint x="-530" y="240" as="targetPoint"/>
                    </mxGeometry>
                </mxCell>
                <mxCell id="413" value="complains" style="shape=rhombus;perimeter=rhombusPerimeter;whiteSpace=wrap;html=1;align=center;" parent="1" vertex="1">
                    <mxGeometry x="-540" y="260" width="120" height="60" as="geometry"/>
                </mxCell>
                <mxCell id="rCRO5mDwt1Ey6ZGiLpo1-33" value="" style="endArrow=none;html=1;rounded=0;shape=link;entryX=0;entryY=0.5;entryDx=0;entryDy=0;" parent="1" source="rCRO5mDwt1Ey6ZGiLpo1-29" target="rCRO5mDwt1Ey6ZGiLpo1-24" edge="1">
                    <mxGeometry relative="1" as="geometry">
                        <mxPoint x="500" y="330" as="sourcePoint"/>
                        <mxPoint x="590" y="330" as="targetPoint"/>
                    </mxGeometry>
                </mxCell>
                <mxCell id="410" value="1" style="edgeLabel;html=1;align=center;verticalAlign=middle;resizable=0;points=[];fontColor=#000000;" parent="rCRO5mDwt1Ey6ZGiLpo1-33" vertex="1" connectable="0">
                    <mxGeometry x="-0.6" y="-4" relative="1" as="geometry">
                        <mxPoint x="16" y="-14" as="offset"/>
                    </mxGeometry>
                </mxCell>
                <mxCell id="594" style="edgeStyle=none;html=1;exitX=0.5;exitY=0;exitDx=0;exitDy=0;entryX=0.5;entryY=1;entryDx=0;entryDy=0;endArrow=none;endFill=0;" parent="1" source="rCRO5mDwt1Ey6ZGiLpo1-37" target="rCRO5mDwt1Ey6ZGiLpo1-231" edge="1">
                    <mxGeometry relative="1" as="geometry"/>
                </mxCell>
                <mxCell id="595" style="edgeStyle=none;html=1;exitX=0.5;exitY=0;exitDx=0;exitDy=0;entryX=0;entryY=1;entryDx=0;entryDy=0;endArrow=none;endFill=0;" parent="1" source="rCRO5mDwt1Ey6ZGiLpo1-37" target="rCRO5mDwt1Ey6ZGiLpo1-262" edge="1">
                    <mxGeometry relative="1" as="geometry"/>
                </mxCell>
                <mxCell id="rCRO5mDwt1Ey6ZGiLpo1-37" value="Contains" style="shape=rhombus;perimeter=rhombusPerimeter;whiteSpace=wrap;html=1;align=center;" parent="1" vertex="1">
                    <mxGeometry x="860" y="300" width="120" height="60" as="geometry"/>
                </mxCell>
                <mxCell id="rCRO5mDwt1Ey6ZGiLpo1-39" value="" style="endArrow=none;html=1;rounded=0;exitX=1;exitY=0.5;exitDx=0;exitDy=0;entryX=0;entryY=0.5;entryDx=0;entryDy=0;" parent="1" source="rCRO5mDwt1Ey6ZGiLpo1-24" target="rCRO5mDwt1Ey6ZGiLpo1-37" edge="1">
                    <mxGeometry relative="1" as="geometry">
                        <mxPoint x="740" y="330" as="sourcePoint"/>
                        <mxPoint x="860" y="330" as="targetPoint"/>
                    </mxGeometry>
                </mxCell>
                <mxCell id="rCRO5mDwt1Ey6ZGiLpo1-40" value="" style="group" connectable="0" vertex="1" parent="1">
                    <mxGeometry x="430" y="440" width="560" height="260" as="geometry"/>
                </mxCell>
                <mxCell id="rCRO5mDwt1Ey6ZGiLpo1-41" value="Product" style="whiteSpace=wrap;html=1;align=center;" vertex="1" parent="rCRO5mDwt1Ey6ZGiLpo1-40">
                    <mxGeometry x="320" y="160" width="110" height="60" as="geometry"/>
                </mxCell>
                <mxCell id="rCRO5mDwt1Ey6ZGiLpo1-42" value="&lt;u&gt;Product ID&lt;/u&gt;" style="ellipse;whiteSpace=wrap;html=1;align=center;" vertex="1" parent="rCRO5mDwt1Ey6ZGiLpo1-40">
                    <mxGeometry x="200" y="70" width="100" height="40" as="geometry"/>
                </mxCell>
                <mxCell id="rCRO5mDwt1Ey6ZGiLpo1-44" value="Discount Percentage" style="ellipse;whiteSpace=wrap;html=1;align=center;" vertex="1" parent="rCRO5mDwt1Ey6ZGiLpo1-40">
                    <mxGeometry x="460" y="170" width="100" height="40" as="geometry"/>
                </mxCell>
                <mxCell id="rCRO5mDwt1Ey6ZGiLpo1-46" value="Price" style="ellipse;whiteSpace=wrap;html=1;align=center;" vertex="1" parent="rCRO5mDwt1Ey6ZGiLpo1-40">
                    <mxGeometry x="440" y="60" width="100" height="40" as="geometry"/>
                </mxCell>
                <mxCell id="rCRO5mDwt1Ey6ZGiLpo1-47" value="Name" style="ellipse;whiteSpace=wrap;html=1;align=center;" vertex="1" parent="rCRO5mDwt1Ey6ZGiLpo1-40">
                    <mxGeometry x="450" y="120" width="100" height="40" as="geometry"/>
                </mxCell>
                <mxCell id="rCRO5mDwt1Ey6ZGiLpo1-48" value="Specifications" style="ellipse;whiteSpace=wrap;html=1;align=center;" vertex="1" parent="rCRO5mDwt1Ey6ZGiLpo1-40">
                    <mxGeometry x="170" y="130" width="100" height="40" as="geometry"/>
                </mxCell>
                <mxCell id="rCRO5mDwt1Ey6ZGiLpo1-50" value="" style="endArrow=none;html=1;rounded=0;entryX=0;entryY=1;entryDx=0;entryDy=0;" edge="1" parent="rCRO5mDwt1Ey6ZGiLpo1-40" target="rCRO5mDwt1Ey6ZGiLpo1-46">
                    <mxGeometry relative="1" as="geometry">
                        <mxPoint x="390" y="160" as="sourcePoint"/>
                        <mxPoint x="380" y="100" as="targetPoint"/>
                    </mxGeometry>
                </mxCell>
                <mxCell id="rCRO5mDwt1Ey6ZGiLpo1-51" value="" style="endArrow=none;html=1;rounded=0;entryX=0;entryY=0.5;entryDx=0;entryDy=0;" edge="1" parent="rCRO5mDwt1Ey6ZGiLpo1-40" target="rCRO5mDwt1Ey6ZGiLpo1-47">
                    <mxGeometry relative="1" as="geometry">
                        <mxPoint x="400" y="160" as="sourcePoint"/>
                        <mxPoint x="390" y="110" as="targetPoint"/>
                    </mxGeometry>
                </mxCell>
                <mxCell id="rCRO5mDwt1Ey6ZGiLpo1-52" value="" style="endArrow=none;html=1;rounded=0;entryX=0;entryY=0.5;entryDx=0;entryDy=0;exitX=1;exitY=0.5;exitDx=0;exitDy=0;" edge="1" parent="rCRO5mDwt1Ey6ZGiLpo1-40" source="rCRO5mDwt1Ey6ZGiLpo1-41" target="rCRO5mDwt1Ey6ZGiLpo1-44">
                    <mxGeometry relative="1" as="geometry">
                        <mxPoint x="430" y="190" as="sourcePoint"/>
                        <mxPoint x="400" y="120" as="targetPoint"/>
                    </mxGeometry>
                </mxCell>
                <mxCell id="rCRO5mDwt1Ey6ZGiLpo1-53" value="" style="endArrow=none;html=1;rounded=0;entryX=1;entryY=1;entryDx=0;entryDy=0;" edge="1" parent="rCRO5mDwt1Ey6ZGiLpo1-40" source="rCRO5mDwt1Ey6ZGiLpo1-41" target="rCRO5mDwt1Ey6ZGiLpo1-42">
                    <mxGeometry relative="1" as="geometry">
                        <mxPoint x="410" y="200" as="sourcePoint"/>
                        <mxPoint x="410" y="130" as="targetPoint"/>
                    </mxGeometry>
                </mxCell>
                <mxCell id="rCRO5mDwt1Ey6ZGiLpo1-54" value="" style="endArrow=none;html=1;rounded=0;entryX=1;entryY=0.5;entryDx=0;entryDy=0;" edge="1" parent="rCRO5mDwt1Ey6ZGiLpo1-40" target="rCRO5mDwt1Ey6ZGiLpo1-48">
                    <mxGeometry relative="1" as="geometry">
                        <mxPoint x="320" y="160" as="sourcePoint"/>
                        <mxPoint x="420" y="140" as="targetPoint"/>
                    </mxGeometry>
                </mxCell>
                <mxCell id="rCRO5mDwt1Ey6ZGiLpo1-58" value="Expiry date" style="ellipse;whiteSpace=wrap;html=1;align=center;" vertex="1" parent="rCRO5mDwt1Ey6ZGiLpo1-40">
                    <mxGeometry y="20" width="100" height="40" as="geometry"/>
                </mxCell>
                <mxCell id="rCRO5mDwt1Ey6ZGiLpo1-59" value="Manufacture date" style="ellipse;whiteSpace=wrap;html=1;align=center;" vertex="1" parent="rCRO5mDwt1Ey6ZGiLpo1-40">
                    <mxGeometry y="70" width="100" height="40" as="geometry"/>
                </mxCell>
                <mxCell id="rCRO5mDwt1Ey6ZGiLpo1-60" value="Country of manufacture" style="ellipse;whiteSpace=wrap;html=1;align=center;" vertex="1" parent="rCRO5mDwt1Ey6ZGiLpo1-40">
                    <mxGeometry y="120" width="100" height="40" as="geometry"/>
                </mxCell>
                <mxCell id="rCRO5mDwt1Ey6ZGiLpo1-61" value="Weight" style="ellipse;whiteSpace=wrap;html=1;align=center;" vertex="1" parent="rCRO5mDwt1Ey6ZGiLpo1-40">
                    <mxGeometry y="170" width="100" height="40" as="geometry"/>
                </mxCell>
                <mxCell id="rCRO5mDwt1Ey6ZGiLpo1-62" value="Dimensions" style="ellipse;whiteSpace=wrap;html=1;align=center;" vertex="1" parent="rCRO5mDwt1Ey6ZGiLpo1-40">
                    <mxGeometry y="220" width="100" height="40" as="geometry"/>
                </mxCell>
                <mxCell id="rCRO5mDwt1Ey6ZGiLpo1-63" value="" style="endArrow=none;html=1;rounded=0;exitX=1;exitY=0.5;exitDx=0;exitDy=0;" edge="1" parent="rCRO5mDwt1Ey6ZGiLpo1-40" source="rCRO5mDwt1Ey6ZGiLpo1-58" target="rCRO5mDwt1Ey6ZGiLpo1-48">
                    <mxGeometry relative="1" as="geometry">
                        <mxPoint x="110" y="50" as="sourcePoint"/>
                        <mxPoint x="270" y="50" as="targetPoint"/>
                    </mxGeometry>
                </mxCell>
                <mxCell id="rCRO5mDwt1Ey6ZGiLpo1-64" value="" style="endArrow=none;html=1;rounded=0;exitX=1;exitY=0.5;exitDx=0;exitDy=0;entryX=0;entryY=0;entryDx=0;entryDy=0;" edge="1" parent="rCRO5mDwt1Ey6ZGiLpo1-40" target="rCRO5mDwt1Ey6ZGiLpo1-48">
                    <mxGeometry relative="1" as="geometry">
                        <mxPoint x="100" y="88.32999999999998" as="sourcePoint"/>
                        <mxPoint x="200.00277719923588" y="179.999212432633" as="targetPoint"/>
                    </mxGeometry>
                </mxCell>
                <mxCell id="rCRO5mDwt1Ey6ZGiLpo1-65" value="" style="endArrow=none;html=1;rounded=0;exitX=1;exitY=0.5;exitDx=0;exitDy=0;entryX=0;entryY=0.5;entryDx=0;entryDy=0;" edge="1" parent="rCRO5mDwt1Ey6ZGiLpo1-40" target="rCRO5mDwt1Ey6ZGiLpo1-48">
                    <mxGeometry relative="1" as="geometry">
                        <mxPoint x="100" y="144.17000000000002" as="sourcePoint"/>
                        <mxPoint x="200.00277719923588" y="235.83921243263302" as="targetPoint"/>
                    </mxGeometry>
                </mxCell>
                <mxCell id="rCRO5mDwt1Ey6ZGiLpo1-66" value="" style="endArrow=none;html=1;rounded=0;exitX=0;exitY=1;exitDx=0;exitDy=0;entryX=1;entryY=0.5;entryDx=0;entryDy=0;" edge="1" parent="rCRO5mDwt1Ey6ZGiLpo1-40" source="rCRO5mDwt1Ey6ZGiLpo1-48" target="rCRO5mDwt1Ey6ZGiLpo1-61">
                    <mxGeometry relative="1" as="geometry">
                        <mxPoint x="130" y="70" as="sourcePoint"/>
                        <mxPoint x="230.00277719923588" y="161.669212432633" as="targetPoint"/>
                    </mxGeometry>
                </mxCell>
                <mxCell id="rCRO5mDwt1Ey6ZGiLpo1-67" value="" style="endArrow=none;html=1;rounded=0;exitX=1;exitY=0.5;exitDx=0;exitDy=0;entryX=0.26;entryY=0.95;entryDx=0;entryDy=0;entryPerimeter=0;" edge="1" parent="rCRO5mDwt1Ey6ZGiLpo1-40" source="rCRO5mDwt1Ey6ZGiLpo1-62" target="rCRO5mDwt1Ey6ZGiLpo1-48">
                    <mxGeometry relative="1" as="geometry">
                        <mxPoint x="140" y="80" as="sourcePoint"/>
                        <mxPoint x="200" y="160" as="targetPoint"/>
                    </mxGeometry>
                </mxCell>
                <mxCell id="245" value="GST" style="ellipse;whiteSpace=wrap;html=1;align=center;" vertex="1" parent="rCRO5mDwt1Ey6ZGiLpo1-40">
                    <mxGeometry x="190" y="180" width="100" height="40" as="geometry"/>
                </mxCell>
                <mxCell id="430" style="edgeStyle=none;html=1;fontColor=#000000;startArrow=none;startFill=0;endArrow=none;endFill=0;entryX=1;entryY=0.5;entryDx=0;entryDy=0;" parent="1" target="rCRO5mDwt1Ey6ZGiLpo1-37" edge="1">
                    <mxGeometry relative="1" as="geometry">
                        <mxPoint x="1070" y="360" as="targetPoint"/>
                        <mxPoint x="830" y="660" as="sourcePoint"/>
                        <Array as="points">
                            <mxPoint x="830" y="730"/>
                            <mxPoint x="1050" y="730"/>
                            <mxPoint x="1050" y="330"/>
                        </Array>
                    </mxGeometry>
                </mxCell>
                <mxCell id="rCRO5mDwt1Ey6ZGiLpo1-231" value="Quantity" style="ellipse;whiteSpace=wrap;html=1;align=center;" parent="1" vertex="1">
                    <mxGeometry x="860" y="210" width="100" height="40" as="geometry"/>
                </mxCell>
                <mxCell id="rCRO5mDwt1Ey6ZGiLpo1-262" value="Cost of required number of items.&amp;nbsp;" style="ellipse;whiteSpace=wrap;html=1;align=center;dashed=1;" parent="1" vertex="1">
                    <mxGeometry x="970" y="210" width="100" height="40" as="geometry"/>
                </mxCell>
                <mxCell id="438" value="" style="group" parent="1" connectable="0" vertex="1">
                    <mxGeometry x="-490" y="590" width="590" height="195" as="geometry"/>
                </mxCell>
                <mxCell id="372" value="Payment Method" style="ellipse;whiteSpace=wrap;html=1;align=center;fillColor=none;" parent="438" vertex="1">
                    <mxGeometry y="60" width="100" height="40" as="geometry"/>
                </mxCell>
                <mxCell id="371" value="Transaction Status" style="ellipse;whiteSpace=wrap;html=1;align=center;fillColor=none;" parent="438" vertex="1">
                    <mxGeometry y="120" width="100" height="40" as="geometry"/>
                </mxCell>
                <mxCell id="305" value="Transaction&lt;br&gt;" style="shape=rhombus;perimeter=rhombusPerimeter;whiteSpace=wrap;html=1;align=center;" parent="438" vertex="1">
                    <mxGeometry x="153" y="60" width="120" height="60" as="geometry"/>
                </mxCell>
                <mxCell id="373" style="edgeStyle=none;html=1;exitX=1;exitY=0.5;exitDx=0;exitDy=0;entryX=0;entryY=0.5;entryDx=0;entryDy=0;endArrow=none;endFill=0;" parent="438" source="372" target="305" edge="1">
                    <mxGeometry relative="1" as="geometry"/>
                </mxCell>
                <mxCell id="374" style="edgeStyle=none;html=1;exitX=1;exitY=0.5;exitDx=0;exitDy=0;entryX=0;entryY=1;entryDx=0;entryDy=0;endArrow=none;endFill=0;" parent="438" source="371" target="305" edge="1">
                    <mxGeometry relative="1" as="geometry"/>
                </mxCell>
                <mxCell id="349" value="Timestamp" style="ellipse;whiteSpace=wrap;html=1;align=center;fillColor=none;" parent="438" vertex="1">
                    <mxGeometry x="280" y="50" width="100" height="41" as="geometry"/>
                </mxCell>
                <mxCell id="347" style="edgeStyle=none;html=1;exitX=1;exitY=0.5;exitDx=0;exitDy=0;entryX=0;entryY=0.5;entryDx=0;entryDy=0;endArrow=none;endFill=0;" parent="438" source="305" target="349" edge="1">
                    <mxGeometry relative="1" as="geometry">
                        <mxPoint x="330" y="66" as="targetPoint"/>
                    </mxGeometry>
                </mxCell>
                <mxCell id="612" style="edgeStyle=none;html=1;exitX=0.25;exitY=1;exitDx=0;exitDy=0;entryX=1;entryY=1;entryDx=0;entryDy=0;endArrow=none;endFill=0;" parent="438" source="604" target="305" edge="1">
                    <mxGeometry relative="1" as="geometry">
                        <Array as="points">
                            <mxPoint x="475" y="180"/>
                            <mxPoint x="243" y="180"/>
                        </Array>
                    </mxGeometry>
                </mxCell>
                <mxCell id="604" value="Coupon" style="whiteSpace=wrap;html=1;align=center;" parent="438" vertex="1">
                    <mxGeometry x="450" y="130" width="100" height="40" as="geometry"/>
                </mxCell>
                <mxCell id="605" style="edgeStyle=none;html=1;exitX=0.5;exitY=1;exitDx=0;exitDy=0;entryX=0.25;entryY=0;entryDx=0;entryDy=0;endArrow=none;endFill=0;" parent="438" source="606" target="604" edge="1">
                    <mxGeometry relative="1" as="geometry"/>
                </mxCell>
                <mxCell id="606" value="Coupon Code" style="ellipse;whiteSpace=wrap;html=1;align=center;fontStyle=4;" parent="438" vertex="1">
                    <mxGeometry x="390" y="70" width="100" height="40" as="geometry"/>
                </mxCell>
                <mxCell id="607" style="edgeStyle=none;html=1;exitX=0.5;exitY=1;exitDx=0;exitDy=0;entryX=0.75;entryY=0;entryDx=0;entryDy=0;endArrow=none;endFill=0;" parent="438" source="608" target="604" edge="1">
                    <mxGeometry relative="1" as="geometry"/>
                </mxCell>
                <mxCell id="608" value="Discount Percentage" style="ellipse;whiteSpace=wrap;html=1;align=center;" parent="438" vertex="1">
                    <mxGeometry x="490" y="70" width="100" height="40" as="geometry"/>
                </mxCell>
                <mxCell id="661" value="applied by customer&lt;br&gt;on cart&lt;br&gt;to create order" style="text;html=1;align=center;verticalAlign=middle;resizable=0;points=[];autosize=1;strokeColor=none;fillColor=none;" parent="438" vertex="1">
                    <mxGeometry x="270" y="130" width="120" height="50" as="geometry"/>
                </mxCell>
                <mxCell id="444" style="edgeStyle=none;html=1;exitX=0;exitY=1;exitDx=0;exitDy=0;endArrow=none;endFill=0;entryX=0;entryY=0.5;entryDx=0;entryDy=0;" parent="1" source="rCRO5mDwt1Ey6ZGiLpo1-137" target="256" edge="1">
                    <mxGeometry relative="1" as="geometry">
                        <mxPoint x="-1180" y="1250" as="targetPoint"/>
                        <Array as="points">
                            <mxPoint x="330" y="270"/>
                            <mxPoint x="-240" y="270"/>
                            <mxPoint x="-240" y="-170"/>
                            <mxPoint x="-1360" y="-160"/>
                            <mxPoint x="-1360" y="1260"/>
                        </Array>
                    </mxGeometry>
                </mxCell>
                <mxCell id="453" style="edgeStyle=none;html=1;exitX=1;exitY=0.5;exitDx=0;exitDy=0;entryX=0.406;entryY=1.018;entryDx=0;entryDy=0;entryPerimeter=0;endArrow=none;endFill=0;shape=link;" parent="1" source="452" target="rCRO5mDwt1Ey6ZGiLpo1-41" edge="1">
                    <mxGeometry relative="1" as="geometry">
                        <Array as="points">
                            <mxPoint x="795" y="750"/>
                        </Array>
                    </mxGeometry>
                </mxCell>
                <mxCell id="478" value="n" style="edgeLabel;html=1;align=center;verticalAlign=middle;resizable=0;points=[];" parent="453" connectable="0" vertex="1">
                    <mxGeometry x="-0.7426" y="2" relative="1" as="geometry">
                        <mxPoint x="-30" y="-8" as="offset"/>
                    </mxGeometry>
                </mxCell>
                <mxCell id="602" style="edgeStyle=none;html=1;exitX=0.5;exitY=1;exitDx=0;exitDy=0;entryX=0.5;entryY=0;entryDx=0;entryDy=0;endArrow=none;endFill=0;" parent="1" source="452" target="601" edge="1">
                    <mxGeometry relative="1" as="geometry"/>
                </mxCell>
                <mxCell id="452" value="stores" style="shape=rhombus;perimeter=rhombusPerimeter;whiteSpace=wrap;html=1;align=center;" parent="1" vertex="1">
                    <mxGeometry x="220" y="720" width="120" height="60" as="geometry"/>
                </mxCell>
                <mxCell id="214" value="Vehicle ID" style="ellipse;whiteSpace=wrap;html=1;align=center;" parent="1" vertex="1">
                    <mxGeometry x="-1027.5" y="960" width="100" height="40" as="geometry"/>
                </mxCell>
                <mxCell id="215" style="edgeStyle=none;html=1;exitX=0;exitY=1;exitDx=0;exitDy=0;endArrow=none;endFill=0;entryX=1;entryY=0;entryDx=0;entryDy=0;" parent="1" source="214" target="196" edge="1">
                    <mxGeometry relative="1" as="geometry"/>
                </mxCell>
                <mxCell id="216" value="Vehicle Type" style="ellipse;whiteSpace=wrap;html=1;align=center;" parent="1" vertex="1">
                    <mxGeometry x="-1045" y="1120" width="100" height="40" as="geometry"/>
                </mxCell>
                <mxCell id="196" value="Delivery Partner" style="whiteSpace=wrap;html=1;align=center;container=1;" parent="1" vertex="1">
                    <mxGeometry x="-1165" y="1060" width="100" height="40" as="geometry"/>
                </mxCell>
                <mxCell id="217" style="edgeStyle=none;html=1;exitX=1;exitY=0.5;exitDx=0;exitDy=0;endArrow=none;endFill=0;" parent="1" source="196" target="216" edge="1">
                    <mxGeometry relative="1" as="geometry"/>
                </mxCell>
                <mxCell id="467" value="Vehicle Type" style="ellipse;whiteSpace=wrap;html=1;align=center;" parent="1" vertex="1">
                    <mxGeometry x="-1045" y="1120" width="100" height="40" as="geometry"/>
                </mxCell>
                <mxCell id="468" value="Delivery Partner" style="whiteSpace=wrap;html=1;align=center;" parent="1" vertex="1">
                    <mxGeometry x="-1165" y="1060" width="100" height="40" as="geometry"/>
                </mxCell>
                <mxCell id="469" value="Vehicle ID" style="ellipse;whiteSpace=wrap;html=1;align=center;" parent="1" vertex="1">
                    <mxGeometry x="-1027.5" y="960" width="100" height="40" as="geometry"/>
                </mxCell>
                <mxCell id="470" style="edgeStyle=none;html=1;exitX=0;exitY=1;exitDx=0;exitDy=0;endArrow=none;endFill=0;entryX=1;entryY=0;entryDx=0;entryDy=0;" parent="1" source="469" target="468" edge="1">
                    <mxGeometry relative="1" as="geometry"/>
                </mxCell>
                <mxCell id="471" style="edgeStyle=none;html=1;exitX=1;exitY=0.5;exitDx=0;exitDy=0;endArrow=none;endFill=0;" parent="1" source="468" target="467" edge="1">
                    <mxGeometry relative="1" as="geometry"/>
                </mxCell>
                <mxCell id="477" value="m" style="text;html=1;align=center;verticalAlign=middle;resizable=0;points=[];autosize=1;strokeColor=none;fillColor=none;" parent="1" vertex="1">
                    <mxGeometry x="125" y="760" width="30" height="20" as="geometry"/>
                </mxCell>
                <mxCell id="548" value="m" style="text;html=1;align=center;verticalAlign=middle;resizable=0;points=[];autosize=1;strokeColor=none;fillColor=none;" parent="1" vertex="1">
                    <mxGeometry x="-850" y="1390" width="30" height="20" as="geometry"/>
                </mxCell>
                <mxCell id="549" value="1" style="text;html=1;align=center;verticalAlign=middle;resizable=0;points=[];autosize=1;strokeColor=none;fillColor=none;" parent="1" vertex="1">
                    <mxGeometry x="-1360" y="610" width="20" height="20" as="geometry"/>
                </mxCell>
                <mxCell id="597" value="Quantity" style="ellipse;whiteSpace=wrap;html=1;align=center;" parent="1" vertex="1">
                    <mxGeometry x="1050" y="820" width="100" height="40" as="geometry"/>
                </mxCell>
                <mxCell id="599" value="n" style="text;html=1;align=center;verticalAlign=middle;resizable=0;points=[];autosize=1;strokeColor=none;fillColor=none;" parent="1" vertex="1">
                    <mxGeometry x="830" y="780" width="20" height="20" as="geometry"/>
                </mxCell>
                <mxCell id="601" value="Stock" style="ellipse;whiteSpace=wrap;html=1;align=center;" parent="1" vertex="1">
                    <mxGeometry x="240" y="800" width="100" height="40" as="geometry"/>
                </mxCell>
                <mxCell id="335" value="Total cost" style="ellipse;whiteSpace=wrap;html=1;align=center;dashed=1;" parent="1" vertex="1">
                    <mxGeometry x="720" y="240" width="100" height="40" as="geometry"/>
                </mxCell>
                <mxCell id="337" style="edgeStyle=none;html=1;exitX=0.75;exitY=0;exitDx=0;exitDy=0;entryX=0.5;entryY=1;entryDx=0;entryDy=0;endArrow=none;endFill=0;" parent="1" source="rCRO5mDwt1Ey6ZGiLpo1-24" target="335" edge="1">
                    <mxGeometry relative="1" as="geometry"/>
                </mxCell>
                <mxCell id="613" style="edgeStyle=none;html=1;exitX=0.5;exitY=1;exitDx=0;exitDy=0;entryX=1;entryY=0;entryDx=0;entryDy=0;endArrow=none;endFill=0;" parent="1" source="rCRO5mDwt1Ey6ZGiLpo1-24" target="305" edge="1">
                    <mxGeometry relative="1" as="geometry">
                        <Array as="points">
                            <mxPoint x="690" y="370"/>
                            <mxPoint x="-247" y="370"/>
                        </Array>
                    </mxGeometry>
                </mxCell>
                <mxCell id="619" value="" style="group;rotation=0;" parent="1" vertex="1" connectable="0">
                    <mxGeometry x="-1017.5" y="200" width="80" height="60" as="geometry"/>
                </mxCell>
                <mxCell id="617" value="" style="triangle;whiteSpace=wrap;html=1;rotation=-90;" parent="619" vertex="1">
                    <mxGeometry x="10" y="-10" width="60" height="80" as="geometry"/>
                </mxCell>
                <mxCell id="618" value="Is a" style="text;html=1;align=center;verticalAlign=middle;resizable=0;points=[];autosize=1;strokeColor=none;fillColor=none;rotation=0;" parent="619" vertex="1">
                    <mxGeometry x="25" y="30" width="30" height="20" as="geometry"/>
                </mxCell>
                <mxCell id="tvMCfg9BwbrJC1F9YZ1s-1" value="Customer" style="whiteSpace=wrap;html=1;align=center;" parent="1" vertex="1">
                    <mxGeometry x="330" y="200" width="110" height="60" as="geometry"/>
                </mxCell>
                <mxCell id="tvMCfg9BwbrJC1F9YZ1s-9" value="Name" style="ellipse;whiteSpace=wrap;html=1;align=center;" parent="1" vertex="1">
                    <mxGeometry x="330" y="90" width="100" height="40" as="geometry"/>
                </mxCell>
                <mxCell id="tvMCfg9BwbrJC1F9YZ1s-10" value="Email Address" style="ellipse;whiteSpace=wrap;html=1;align=center;" parent="1" vertex="1">
                    <mxGeometry x="450" y="100" width="100" height="40" as="geometry"/>
                </mxCell>
                <mxCell id="tvMCfg9BwbrJC1F9YZ1s-11" value="Password" style="ellipse;whiteSpace=wrap;html=1;align=center;" parent="1" vertex="1">
                    <mxGeometry x="460" y="160" width="100" height="40" as="geometry"/>
                </mxCell>
                <mxCell id="tvMCfg9BwbrJC1F9YZ1s-12" value="Address" style="ellipse;whiteSpace=wrap;html=1;align=center;" parent="1" vertex="1">
                    <mxGeometry x="140" y="110" width="100" height="40" as="geometry"/>
                </mxCell>
                <mxCell id="rCRO5mDwt1Ey6ZGiLpo1-1" value="" style="endArrow=none;html=1;rounded=0;" parent="1" source="tvMCfg9BwbrJC1F9YZ1s-1" edge="1">
                    <mxGeometry relative="1" as="geometry">
                        <mxPoint x="380" y="40" as="sourcePoint"/>
                        <mxPoint x="380" y="130" as="targetPoint"/>
                    </mxGeometry>
                </mxCell>
                <mxCell id="rCRO5mDwt1Ey6ZGiLpo1-2" value="" style="endArrow=none;html=1;rounded=0;entryX=0;entryY=1;entryDx=0;entryDy=0;" parent="1" target="tvMCfg9BwbrJC1F9YZ1s-10" edge="1">
                    <mxGeometry relative="1" as="geometry">
                        <mxPoint x="400" y="200" as="sourcePoint"/>
                        <mxPoint x="390" y="140" as="targetPoint"/>
                    </mxGeometry>
                </mxCell>
                <mxCell id="rCRO5mDwt1Ey6ZGiLpo1-3" value="" style="endArrow=none;html=1;rounded=0;entryX=0;entryY=0.5;entryDx=0;entryDy=0;" parent="1" target="tvMCfg9BwbrJC1F9YZ1s-11" edge="1">
                    <mxGeometry relative="1" as="geometry">
                        <mxPoint x="410" y="200" as="sourcePoint"/>
                        <mxPoint x="400" y="150" as="targetPoint"/>
                    </mxGeometry>
                </mxCell>
                <mxCell id="rCRO5mDwt1Ey6ZGiLpo1-6" value="" style="endArrow=none;html=1;rounded=0;entryX=1;entryY=0.5;entryDx=0;entryDy=0;" parent="1" target="tvMCfg9BwbrJC1F9YZ1s-12" edge="1">
                    <mxGeometry relative="1" as="geometry">
                        <mxPoint x="330" y="200" as="sourcePoint"/>
                        <mxPoint x="430" y="180" as="targetPoint"/>
                    </mxGeometry>
                </mxCell>
                <mxCell id="rCRO5mDwt1Ey6ZGiLpo1-8" value="First Name" style="ellipse;whiteSpace=wrap;html=1;align=center;" parent="1" vertex="1">
                    <mxGeometry x="270" y="40" width="100" height="40" as="geometry"/>
                </mxCell>
                <mxCell id="rCRO5mDwt1Ey6ZGiLpo1-9" value="Last Name" style="ellipse;whiteSpace=wrap;html=1;align=center;" parent="1" vertex="1">
                    <mxGeometry x="380" y="40" width="100" height="40" as="geometry"/>
                </mxCell>
                <mxCell id="rCRO5mDwt1Ey6ZGiLpo1-10" value="House Number" style="ellipse;whiteSpace=wrap;html=1;align=center;" parent="1" vertex="1">
                    <mxGeometry x="-30" width="100" height="40" as="geometry"/>
                </mxCell>
                <mxCell id="rCRO5mDwt1Ey6ZGiLpo1-11" value="Locality" style="ellipse;whiteSpace=wrap;html=1;align=center;" parent="1" vertex="1">
                    <mxGeometry x="-30" y="50" width="100" height="40" as="geometry"/>
                </mxCell>
                <mxCell id="rCRO5mDwt1Ey6ZGiLpo1-12" value="City" style="ellipse;whiteSpace=wrap;html=1;align=center;" parent="1" vertex="1">
                    <mxGeometry x="-30" y="100" width="100" height="40" as="geometry"/>
                </mxCell>
                <mxCell id="rCRO5mDwt1Ey6ZGiLpo1-16" value="" style="endArrow=none;html=1;rounded=0;exitX=1;exitY=0.5;exitDx=0;exitDy=0;" parent="1" source="rCRO5mDwt1Ey6ZGiLpo1-10" target="tvMCfg9BwbrJC1F9YZ1s-12" edge="1">
                    <mxGeometry relative="1" as="geometry">
                        <mxPoint x="80" y="30" as="sourcePoint"/>
                        <mxPoint x="240" y="30" as="targetPoint"/>
                    </mxGeometry>
                </mxCell>
                <mxCell id="rCRO5mDwt1Ey6ZGiLpo1-17" value="" style="endArrow=none;html=1;rounded=0;exitX=1;exitY=0.5;exitDx=0;exitDy=0;entryX=0;entryY=0;entryDx=0;entryDy=0;" parent="1" target="tvMCfg9BwbrJC1F9YZ1s-12" edge="1">
                    <mxGeometry relative="1" as="geometry">
                        <mxPoint x="70" y="68.32999999999998" as="sourcePoint"/>
                        <mxPoint x="170.00277719923588" y="159.999212432633" as="targetPoint"/>
                    </mxGeometry>
                </mxCell>
                <mxCell id="rCRO5mDwt1Ey6ZGiLpo1-18" value="" style="endArrow=none;html=1;rounded=0;exitX=1;exitY=0.5;exitDx=0;exitDy=0;entryX=0;entryY=0.5;entryDx=0;entryDy=0;" parent="1" target="tvMCfg9BwbrJC1F9YZ1s-12" edge="1">
                    <mxGeometry relative="1" as="geometry">
                        <mxPoint x="70" y="124.17000000000002" as="sourcePoint"/>
                        <mxPoint x="170.00277719923588" y="215.83921243263302" as="targetPoint"/>
                    </mxGeometry>
                </mxCell>
                <mxCell id="rCRO5mDwt1Ey6ZGiLpo1-21" value="" style="endArrow=none;html=1;rounded=0;exitX=1;exitY=0.5;exitDx=0;exitDy=0;" parent="1" edge="1">
                    <mxGeometry relative="1" as="geometry">
                        <mxPoint x="340" y="80" as="sourcePoint"/>
                        <mxPoint x="360" y="90" as="targetPoint"/>
                    </mxGeometry>
                </mxCell>
                <mxCell id="rCRO5mDwt1Ey6ZGiLpo1-22" value="" style="endArrow=none;html=1;rounded=0;exitX=1;exitY=0.5;exitDx=0;exitDy=0;" parent="1" target="tvMCfg9BwbrJC1F9YZ1s-9" edge="1">
                    <mxGeometry relative="1" as="geometry">
                        <mxPoint x="410" y="78.32999999999998" as="sourcePoint"/>
                        <mxPoint x="510.0027771992359" y="169.999212432633" as="targetPoint"/>
                    </mxGeometry>
                </mxCell>
                <mxCell id="rCRO5mDwt1Ey6ZGiLpo1-105" value="" style="group" parent="1" vertex="1" connectable="0">
                    <mxGeometry x="10" y="40" width="560" height="260" as="geometry"/>
                </mxCell>
                <mxCell id="rCRO5mDwt1Ey6ZGiLpo1-106" value="Customer" style="whiteSpace=wrap;html=1;align=center;" parent="rCRO5mDwt1Ey6ZGiLpo1-105" vertex="1">
                    <mxGeometry x="320" y="160" width="110" height="60" as="geometry"/>
                </mxCell>
                <mxCell id="rCRO5mDwt1Ey6ZGiLpo1-109" value="Name" style="ellipse;whiteSpace=wrap;html=1;align=center;" parent="rCRO5mDwt1Ey6ZGiLpo1-105" vertex="1">
                    <mxGeometry x="320" y="50" width="100" height="40" as="geometry"/>
                </mxCell>
                <mxCell id="rCRO5mDwt1Ey6ZGiLpo1-110" value="Email Address" style="ellipse;whiteSpace=wrap;html=1;align=center;" parent="rCRO5mDwt1Ey6ZGiLpo1-105" vertex="1">
                    <mxGeometry x="440" y="60" width="100" height="40" as="geometry"/>
                </mxCell>
                <mxCell id="rCRO5mDwt1Ey6ZGiLpo1-111" value="Password" style="ellipse;whiteSpace=wrap;html=1;align=center;" parent="rCRO5mDwt1Ey6ZGiLpo1-105" vertex="1">
                    <mxGeometry x="450" y="120" width="100" height="40" as="geometry"/>
                </mxCell>
                <mxCell id="rCRO5mDwt1Ey6ZGiLpo1-112" value="Address" style="ellipse;whiteSpace=wrap;html=1;align=center;" parent="rCRO5mDwt1Ey6ZGiLpo1-105" vertex="1">
                    <mxGeometry x="130" y="70" width="100" height="40" as="geometry"/>
                </mxCell>
                <mxCell id="rCRO5mDwt1Ey6ZGiLpo1-113" value="" style="endArrow=none;html=1;rounded=0;" parent="rCRO5mDwt1Ey6ZGiLpo1-105" source="rCRO5mDwt1Ey6ZGiLpo1-106" edge="1">
                    <mxGeometry relative="1" as="geometry">
                        <mxPoint x="370" as="sourcePoint"/>
                        <mxPoint x="370" y="90" as="targetPoint"/>
                    </mxGeometry>
                </mxCell>
                <mxCell id="rCRO5mDwt1Ey6ZGiLpo1-114" value="" style="endArrow=none;html=1;rounded=0;entryX=0;entryY=1;entryDx=0;entryDy=0;" parent="rCRO5mDwt1Ey6ZGiLpo1-105" target="rCRO5mDwt1Ey6ZGiLpo1-110" edge="1">
                    <mxGeometry relative="1" as="geometry">
                        <mxPoint x="390" y="160" as="sourcePoint"/>
                        <mxPoint x="380" y="100" as="targetPoint"/>
                    </mxGeometry>
                </mxCell>
                <mxCell id="rCRO5mDwt1Ey6ZGiLpo1-115" value="" style="endArrow=none;html=1;rounded=0;entryX=0;entryY=0.5;entryDx=0;entryDy=0;" parent="rCRO5mDwt1Ey6ZGiLpo1-105" target="rCRO5mDwt1Ey6ZGiLpo1-111" edge="1">
                    <mxGeometry relative="1" as="geometry">
                        <mxPoint x="400" y="160" as="sourcePoint"/>
                        <mxPoint x="390" y="110" as="targetPoint"/>
                    </mxGeometry>
                </mxCell>
                <mxCell id="rCRO5mDwt1Ey6ZGiLpo1-118" value="" style="endArrow=none;html=1;rounded=0;entryX=1;entryY=0.5;entryDx=0;entryDy=0;" parent="rCRO5mDwt1Ey6ZGiLpo1-105" target="rCRO5mDwt1Ey6ZGiLpo1-112" edge="1">
                    <mxGeometry relative="1" as="geometry">
                        <mxPoint x="320" y="160" as="sourcePoint"/>
                        <mxPoint x="420" y="140" as="targetPoint"/>
                    </mxGeometry>
                </mxCell>
                <mxCell id="rCRO5mDwt1Ey6ZGiLpo1-120" value="First Name" style="ellipse;whiteSpace=wrap;html=1;align=center;" parent="rCRO5mDwt1Ey6ZGiLpo1-105" vertex="1">
                    <mxGeometry x="260" width="100" height="40" as="geometry"/>
                </mxCell>
                <mxCell id="rCRO5mDwt1Ey6ZGiLpo1-121" value="Last Name" style="ellipse;whiteSpace=wrap;html=1;align=center;" parent="rCRO5mDwt1Ey6ZGiLpo1-105" vertex="1">
                    <mxGeometry x="370" width="100" height="40" as="geometry"/>
                </mxCell>
                <mxCell id="rCRO5mDwt1Ey6ZGiLpo1-122" value="House Number" style="ellipse;whiteSpace=wrap;html=1;align=center;" parent="rCRO5mDwt1Ey6ZGiLpo1-105" vertex="1">
                    <mxGeometry x="-40" y="-40" width="100" height="40" as="geometry"/>
                </mxCell>
                <mxCell id="rCRO5mDwt1Ey6ZGiLpo1-123" value="Locality" style="ellipse;whiteSpace=wrap;html=1;align=center;" parent="rCRO5mDwt1Ey6ZGiLpo1-105" vertex="1">
                    <mxGeometry x="-40" y="10" width="100" height="40" as="geometry"/>
                </mxCell>
                <mxCell id="rCRO5mDwt1Ey6ZGiLpo1-124" value="City" style="ellipse;whiteSpace=wrap;html=1;align=center;" parent="rCRO5mDwt1Ey6ZGiLpo1-105" vertex="1">
                    <mxGeometry x="-40" y="60" width="100" height="40" as="geometry"/>
                </mxCell>
                <mxCell id="rCRO5mDwt1Ey6ZGiLpo1-127" value="" style="endArrow=none;html=1;rounded=0;exitX=1;exitY=0.5;exitDx=0;exitDy=0;" parent="rCRO5mDwt1Ey6ZGiLpo1-105" source="rCRO5mDwt1Ey6ZGiLpo1-122" target="rCRO5mDwt1Ey6ZGiLpo1-112" edge="1">
                    <mxGeometry relative="1" as="geometry">
                        <mxPoint x="70" y="-10" as="sourcePoint"/>
                        <mxPoint x="230" y="-10" as="targetPoint"/>
                    </mxGeometry>
                </mxCell>
                <mxCell id="rCRO5mDwt1Ey6ZGiLpo1-128" value="" style="endArrow=none;html=1;rounded=0;exitX=1;exitY=0.5;exitDx=0;exitDy=0;entryX=0;entryY=0;entryDx=0;entryDy=0;" parent="rCRO5mDwt1Ey6ZGiLpo1-105" target="rCRO5mDwt1Ey6ZGiLpo1-112" edge="1">
                    <mxGeometry relative="1" as="geometry">
                        <mxPoint x="60" y="28.329999999999984" as="sourcePoint"/>
                        <mxPoint x="160.00277719923588" y="119.99921243263299" as="targetPoint"/>
                    </mxGeometry>
                </mxCell>
                <mxCell id="rCRO5mDwt1Ey6ZGiLpo1-129" value="" style="endArrow=none;html=1;rounded=0;exitX=1;exitY=0.5;exitDx=0;exitDy=0;entryX=0;entryY=0.5;entryDx=0;entryDy=0;" parent="rCRO5mDwt1Ey6ZGiLpo1-105" target="rCRO5mDwt1Ey6ZGiLpo1-112" edge="1">
                    <mxGeometry relative="1" as="geometry">
                        <mxPoint x="60" y="84.17000000000002" as="sourcePoint"/>
                        <mxPoint x="160.00277719923588" y="175.83921243263302" as="targetPoint"/>
                    </mxGeometry>
                </mxCell>
                <mxCell id="rCRO5mDwt1Ey6ZGiLpo1-131" value="" style="endArrow=none;html=1;rounded=0;exitX=1;exitY=0.5;exitDx=0;exitDy=0;entryX=0.26;entryY=0.95;entryDx=0;entryDy=0;entryPerimeter=0;" parent="rCRO5mDwt1Ey6ZGiLpo1-105" source="rCRO5mDwt1Ey6ZGiLpo1-126" target="rCRO5mDwt1Ey6ZGiLpo1-112" edge="1">
                    <mxGeometry relative="1" as="geometry">
                        <mxPoint x="100" y="20" as="sourcePoint"/>
                        <mxPoint x="160" y="100" as="targetPoint"/>
                    </mxGeometry>
                </mxCell>
                <mxCell id="rCRO5mDwt1Ey6ZGiLpo1-132" value="" style="endArrow=none;html=1;rounded=0;exitX=1;exitY=0.5;exitDx=0;exitDy=0;" parent="rCRO5mDwt1Ey6ZGiLpo1-105" edge="1">
                    <mxGeometry relative="1" as="geometry">
                        <mxPoint x="330" y="40" as="sourcePoint"/>
                        <mxPoint x="350" y="50" as="targetPoint"/>
                    </mxGeometry>
                </mxCell>
                <mxCell id="rCRO5mDwt1Ey6ZGiLpo1-133" value="" style="endArrow=none;html=1;rounded=0;exitX=1;exitY=0.5;exitDx=0;exitDy=0;" parent="rCRO5mDwt1Ey6ZGiLpo1-105" target="rCRO5mDwt1Ey6ZGiLpo1-109" edge="1">
                    <mxGeometry relative="1" as="geometry">
                        <mxPoint x="400" y="38.329999999999984" as="sourcePoint"/>
                        <mxPoint x="500.0027771992359" y="129.999212432633" as="targetPoint"/>
                    </mxGeometry>
                </mxCell>
                <mxCell id="rCRO5mDwt1Ey6ZGiLpo1-136" value="" style="group" parent="rCRO5mDwt1Ey6ZGiLpo1-105" vertex="1" connectable="0">
                    <mxGeometry width="560" height="260" as="geometry"/>
                </mxCell>
                <mxCell id="rCRO5mDwt1Ey6ZGiLpo1-137" value="Customer" style="whiteSpace=wrap;html=1;align=center;" parent="rCRO5mDwt1Ey6ZGiLpo1-136" vertex="1">
                    <mxGeometry x="320" y="160" width="110" height="60" as="geometry"/>
                </mxCell>
                <mxCell id="rCRO5mDwt1Ey6ZGiLpo1-138" value="&lt;u&gt;Customer ID&lt;/u&gt;" style="ellipse;whiteSpace=wrap;html=1;align=center;" parent="rCRO5mDwt1Ey6ZGiLpo1-136" vertex="1">
                    <mxGeometry x="180" y="30" width="100" height="40" as="geometry"/>
                </mxCell>
                <mxCell id="rCRO5mDwt1Ey6ZGiLpo1-140" value="Name" style="ellipse;whiteSpace=wrap;html=1;align=center;" parent="rCRO5mDwt1Ey6ZGiLpo1-136" vertex="1">
                    <mxGeometry x="320" y="50" width="100" height="40" as="geometry"/>
                </mxCell>
                <mxCell id="rCRO5mDwt1Ey6ZGiLpo1-141" value="Email Address" style="ellipse;whiteSpace=wrap;html=1;align=center;" parent="rCRO5mDwt1Ey6ZGiLpo1-136" vertex="1">
                    <mxGeometry x="440" y="60" width="100" height="40" as="geometry"/>
                </mxCell>
                <mxCell id="rCRO5mDwt1Ey6ZGiLpo1-142" value="Password" style="ellipse;whiteSpace=wrap;html=1;align=center;" parent="rCRO5mDwt1Ey6ZGiLpo1-136" vertex="1">
                    <mxGeometry x="450" y="120" width="100" height="40" as="geometry"/>
                </mxCell>
                <mxCell id="rCRO5mDwt1Ey6ZGiLpo1-143" value="Address" style="ellipse;whiteSpace=wrap;html=1;align=center;" parent="rCRO5mDwt1Ey6ZGiLpo1-136" vertex="1">
                    <mxGeometry x="130" y="70" width="100" height="40" as="geometry"/>
                </mxCell>
                <mxCell id="rCRO5mDwt1Ey6ZGiLpo1-144" value="" style="endArrow=none;html=1;rounded=0;" parent="rCRO5mDwt1Ey6ZGiLpo1-136" source="rCRO5mDwt1Ey6ZGiLpo1-137" edge="1">
                    <mxGeometry relative="1" as="geometry">
                        <mxPoint x="370" as="sourcePoint"/>
                        <mxPoint x="370" y="90" as="targetPoint"/>
                    </mxGeometry>
                </mxCell>
                <mxCell id="rCRO5mDwt1Ey6ZGiLpo1-145" value="" style="endArrow=none;html=1;rounded=0;entryX=0;entryY=1;entryDx=0;entryDy=0;" parent="rCRO5mDwt1Ey6ZGiLpo1-136" target="rCRO5mDwt1Ey6ZGiLpo1-141" edge="1">
                    <mxGeometry relative="1" as="geometry">
                        <mxPoint x="390" y="160" as="sourcePoint"/>
                        <mxPoint x="380" y="100" as="targetPoint"/>
                    </mxGeometry>
                </mxCell>
                <mxCell id="rCRO5mDwt1Ey6ZGiLpo1-146" value="" style="endArrow=none;html=1;rounded=0;entryX=0;entryY=0.5;entryDx=0;entryDy=0;" parent="rCRO5mDwt1Ey6ZGiLpo1-136" target="rCRO5mDwt1Ey6ZGiLpo1-142" edge="1">
                    <mxGeometry relative="1" as="geometry">
                        <mxPoint x="400" y="160" as="sourcePoint"/>
                        <mxPoint x="390" y="110" as="targetPoint"/>
                    </mxGeometry>
                </mxCell>
                <mxCell id="rCRO5mDwt1Ey6ZGiLpo1-148" value="" style="endArrow=none;html=1;rounded=0;entryX=1;entryY=1;entryDx=0;entryDy=0;" parent="rCRO5mDwt1Ey6ZGiLpo1-136" source="rCRO5mDwt1Ey6ZGiLpo1-137" target="rCRO5mDwt1Ey6ZGiLpo1-138" edge="1">
                    <mxGeometry relative="1" as="geometry">
                        <mxPoint x="410" y="200" as="sourcePoint"/>
                        <mxPoint x="410" y="130" as="targetPoint"/>
                    </mxGeometry>
                </mxCell>
                <mxCell id="rCRO5mDwt1Ey6ZGiLpo1-149" value="" style="endArrow=none;html=1;rounded=0;entryX=1;entryY=0.5;entryDx=0;entryDy=0;" parent="rCRO5mDwt1Ey6ZGiLpo1-136" target="rCRO5mDwt1Ey6ZGiLpo1-143" edge="1">
                    <mxGeometry relative="1" as="geometry">
                        <mxPoint x="320" y="160" as="sourcePoint"/>
                        <mxPoint x="420" y="140" as="targetPoint"/>
                    </mxGeometry>
                </mxCell>
                <mxCell id="rCRO5mDwt1Ey6ZGiLpo1-151" value="First Name" style="ellipse;whiteSpace=wrap;html=1;align=center;" parent="rCRO5mDwt1Ey6ZGiLpo1-136" vertex="1">
                    <mxGeometry x="260" width="100" height="40" as="geometry"/>
                </mxCell>
                <mxCell id="rCRO5mDwt1Ey6ZGiLpo1-152" value="Last Name" style="ellipse;whiteSpace=wrap;html=1;align=center;" parent="rCRO5mDwt1Ey6ZGiLpo1-136" vertex="1">
                    <mxGeometry x="370" width="100" height="40" as="geometry"/>
                </mxCell>
                <mxCell id="rCRO5mDwt1Ey6ZGiLpo1-153" value="House Number" style="ellipse;whiteSpace=wrap;html=1;align=center;" parent="rCRO5mDwt1Ey6ZGiLpo1-136" vertex="1">
                    <mxGeometry x="-40" y="-40" width="100" height="40" as="geometry"/>
                </mxCell>
                <mxCell id="rCRO5mDwt1Ey6ZGiLpo1-154" value="Locality" style="ellipse;whiteSpace=wrap;html=1;align=center;" parent="rCRO5mDwt1Ey6ZGiLpo1-136" vertex="1">
                    <mxGeometry x="-40" y="10" width="100" height="40" as="geometry"/>
                </mxCell>
                <mxCell id="rCRO5mDwt1Ey6ZGiLpo1-155" value="City" style="ellipse;whiteSpace=wrap;html=1;align=center;" parent="rCRO5mDwt1Ey6ZGiLpo1-136" vertex="1">
                    <mxGeometry x="-40" y="60" width="100" height="40" as="geometry"/>
                </mxCell>
                <mxCell id="rCRO5mDwt1Ey6ZGiLpo1-158" value="" style="endArrow=none;html=1;rounded=0;exitX=1;exitY=0.5;exitDx=0;exitDy=0;" parent="rCRO5mDwt1Ey6ZGiLpo1-136" source="rCRO5mDwt1Ey6ZGiLpo1-153" target="rCRO5mDwt1Ey6ZGiLpo1-143" edge="1">
                    <mxGeometry relative="1" as="geometry">
                        <mxPoint x="70" y="-10" as="sourcePoint"/>
                        <mxPoint x="230" y="-10" as="targetPoint"/>
                    </mxGeometry>
                </mxCell>
                <mxCell id="rCRO5mDwt1Ey6ZGiLpo1-159" value="" style="endArrow=none;html=1;rounded=0;exitX=1;exitY=0.5;exitDx=0;exitDy=0;entryX=0;entryY=0;entryDx=0;entryDy=0;" parent="rCRO5mDwt1Ey6ZGiLpo1-136" target="rCRO5mDwt1Ey6ZGiLpo1-143" edge="1">
                    <mxGeometry relative="1" as="geometry">
                        <mxPoint x="60" y="28.329999999999984" as="sourcePoint"/>
                        <mxPoint x="160.00277719923588" y="119.99921243263299" as="targetPoint"/>
                    </mxGeometry>
                </mxCell>
                <mxCell id="rCRO5mDwt1Ey6ZGiLpo1-160" value="" style="endArrow=none;html=1;rounded=0;exitX=1;exitY=0.5;exitDx=0;exitDy=0;entryX=0;entryY=0.5;entryDx=0;entryDy=0;" parent="rCRO5mDwt1Ey6ZGiLpo1-136" target="rCRO5mDwt1Ey6ZGiLpo1-143" edge="1">
                    <mxGeometry relative="1" as="geometry">
                        <mxPoint x="60" y="84.17000000000002" as="sourcePoint"/>
                        <mxPoint x="160.00277719923588" y="175.83921243263302" as="targetPoint"/>
                    </mxGeometry>
                </mxCell>
                <mxCell id="rCRO5mDwt1Ey6ZGiLpo1-163" value="" style="endArrow=none;html=1;rounded=0;exitX=1;exitY=0.5;exitDx=0;exitDy=0;" parent="rCRO5mDwt1Ey6ZGiLpo1-136" edge="1">
                    <mxGeometry relative="1" as="geometry">
                        <mxPoint x="330" y="40" as="sourcePoint"/>
                        <mxPoint x="350" y="50" as="targetPoint"/>
                    </mxGeometry>
                </mxCell>
                <mxCell id="rCRO5mDwt1Ey6ZGiLpo1-164" value="" style="endArrow=none;html=1;rounded=0;exitX=1;exitY=0.5;exitDx=0;exitDy=0;" parent="rCRO5mDwt1Ey6ZGiLpo1-136" target="rCRO5mDwt1Ey6ZGiLpo1-140" edge="1">
                    <mxGeometry relative="1" as="geometry">
                        <mxPoint x="400" y="38.329999999999984" as="sourcePoint"/>
                        <mxPoint x="500.0027771992359" y="129.999212432633" as="targetPoint"/>
                    </mxGeometry>
                </mxCell>
                <mxCell id="rCRO5mDwt1Ey6ZGiLpo1-126" value="Pin Code" style="ellipse;whiteSpace=wrap;html=1;align=center;" parent="rCRO5mDwt1Ey6ZGiLpo1-136" vertex="1">
                    <mxGeometry x="-40" y="110" width="100" height="40" as="geometry"/>
                </mxCell>
                <mxCell id="633" value="password" style="ellipse;whiteSpace=wrap;html=1;align=center;" parent="1" vertex="1">
                    <mxGeometry x="-850" y="-90" width="100" height="40" as="geometry"/>
                </mxCell>
                <mxCell id="89" value="Employee ID" style="ellipse;whiteSpace=wrap;html=1;align=center;fontStyle=4;" parent="1" vertex="1">
                    <mxGeometry x="-970" y="-60" width="100" height="40" as="geometry"/>
                </mxCell>
                <mxCell id="634" value="" style="edgeStyle=none;html=1;exitX=0.646;exitY=-0.013;exitDx=0;exitDy=0;entryX=0;entryY=1;entryDx=0;entryDy=0;startArrow=none;startFill=0;endArrow=none;endFill=0;exitPerimeter=0;" parent="1" source="145" target="89" edge="1">
                    <mxGeometry relative="1" as="geometry">
                        <mxPoint x="-920.2327913248396" y="-45.80901460527275" as="targetPoint"/>
                        <mxPoint x="-960.71" y="19.089999999999918" as="sourcePoint"/>
                    </mxGeometry>
                </mxCell>
                <mxCell id="70" value="Pin Code" style="ellipse;whiteSpace=wrap;html=1;align=center;" parent="1" vertex="1">
                    <mxGeometry x="-550" y="460" width="100" height="42" as="geometry"/>
                </mxCell>
                <mxCell id="465" value="&lt;font color=&quot;#000000&quot;&gt;1&lt;/font&gt;" style="text;html=1;align=center;verticalAlign=middle;resizable=0;points=[];autosize=1;strokeColor=none;fillColor=none;" parent="1" vertex="1">
                    <mxGeometry x="270" y="370" width="20" height="20" as="geometry"/>
                </mxCell>
                <mxCell id="648" value="part of" style="text;html=1;align=center;verticalAlign=middle;resizable=0;points=[];autosize=1;strokeColor=none;fillColor=none;" parent="1" vertex="1">
                    <mxGeometry x="-987.5" y="300" width="50" height="20" as="geometry"/>
                </mxCell>
                <mxCell id="649" value="part of" style="text;html=1;align=center;verticalAlign=middle;resizable=0;points=[];autosize=1;strokeColor=none;fillColor=none;" parent="1" vertex="1">
                    <mxGeometry x="-800" y="290" width="50" height="20" as="geometry"/>
                </mxCell>
                <mxCell id="650" value="part of" style="text;html=1;align=center;verticalAlign=middle;resizable=0;points=[];autosize=1;strokeColor=none;fillColor=none;" parent="1" vertex="1">
                    <mxGeometry x="-1120" y="300" width="50" height="20" as="geometry"/>
                </mxCell>
                <mxCell id="651" value="picks up order&lt;br&gt;from warehouse&lt;br&gt;delivers to customer" style="text;html=1;align=center;verticalAlign=middle;resizable=0;points=[];autosize=1;strokeColor=none;fillColor=none;" parent="1" vertex="1">
                    <mxGeometry x="-1220" y="1160" width="120" height="50" as="geometry"/>
                </mxCell>
                <mxCell id="652" value="receives delivery&lt;br&gt;by delivery partner&lt;br&gt;of an order&lt;br&gt;dispatched from&amp;nbsp;&lt;br&gt;a warehouse" style="text;html=1;align=center;verticalAlign=middle;resizable=0;points=[];autosize=1;strokeColor=none;fillColor=none;" parent="1" vertex="1">
                    <mxGeometry x="-1480" y="935" width="110" height="80" as="geometry"/>
                </mxCell>
                <mxCell id="653" value="dispatches order for&amp;nbsp;&lt;br&gt;delivery to customer&lt;br&gt;for an order&lt;br&gt;by a delivery employee" style="text;html=1;align=center;verticalAlign=middle;resizable=0;points=[];autosize=1;strokeColor=none;fillColor=none;" parent="1" vertex="1">
                    <mxGeometry x="-890" y="1220" width="140" height="60" as="geometry"/>
                </mxCell>
                <mxCell id="654" value="order picked up from warehouse&lt;br&gt;by delivery employee&lt;br&gt;delivered to customer&lt;br&gt;" style="text;html=1;align=center;verticalAlign=middle;resizable=0;points=[];autosize=1;strokeColor=none;fillColor=none;" parent="1" vertex="1">
                    <mxGeometry x="-760" y="1390" width="190" height="50" as="geometry"/>
                </mxCell>
                <mxCell id="655" value="contains" style="text;html=1;align=center;verticalAlign=middle;resizable=0;points=[];autosize=1;strokeColor=none;fillColor=none;" parent="1" vertex="1">
                    <mxGeometry x="430" y="1170" width="60" height="20" as="geometry"/>
                </mxCell>
                <mxCell id="656" value="composes &lt;br&gt;the order" style="text;html=1;align=center;verticalAlign=middle;resizable=0;points=[];autosize=1;strokeColor=none;fillColor=none;" parent="1" vertex="1">
                    <mxGeometry x="900" y="770" width="70" height="30" as="geometry"/>
                </mxCell>
                <mxCell id="657" value="Composes &lt;br&gt;the cart" style="text;html=1;align=center;verticalAlign=middle;resizable=0;points=[];autosize=1;strokeColor=none;fillColor=none;" parent="1" vertex="1">
                    <mxGeometry x="1040" y="502" width="70" height="30" as="geometry"/>
                </mxCell>
                <mxCell id="660" value="paid for by customer&lt;br&gt;who applied coupon&amp;nbsp;&lt;br&gt;for items in cart" style="text;html=1;align=center;verticalAlign=middle;resizable=0;points=[];autosize=1;strokeColor=none;fillColor=none;" parent="1" vertex="1">
                    <mxGeometry x="-300" y="885" width="130" height="50" as="geometry"/>
                </mxCell>
                <mxCell id="662" value="checks out cart&lt;br&gt;applies coupon&lt;br&gt;places order" style="text;html=1;align=center;verticalAlign=middle;resizable=0;points=[];autosize=1;strokeColor=none;fillColor=none;" parent="1" vertex="1">
                    <mxGeometry x="-320" y="305" width="100" height="50" as="geometry"/>
                </mxCell>
                <mxCell id="663" value="checked out by customer&lt;br&gt;who applies coupon&lt;br&gt;to create order" style="text;html=1;align=center;verticalAlign=middle;resizable=0;points=[];autosize=1;strokeColor=none;fillColor=none;" parent="1" vertex="1">
                    <mxGeometry x="-225" y="335" width="150" height="50" as="geometry"/>
                </mxCell>
                <mxCell id="664" value="supplies" style="text;html=1;align=center;verticalAlign=middle;resizable=0;points=[];autosize=1;strokeColor=none;fillColor=none;" parent="1" vertex="1">
                    <mxGeometry x="130" y="630" width="60" height="20" as="geometry"/>
                </mxCell>
                <mxCell id="665" value="supplied by" style="text;html=1;align=center;verticalAlign=middle;resizable=0;points=[];autosize=1;strokeColor=none;fillColor=none;" parent="1" vertex="1">
                    <mxGeometry x="390" y="700" width="80" height="20" as="geometry"/>
                </mxCell>
                <mxCell id="668" value="attends customer&lt;br&gt;for order" style="text;html=1;align=center;verticalAlign=middle;resizable=0;points=[];autosize=1;strokeColor=none;fillColor=none;" parent="1" vertex="1">
                    <mxGeometry x="-600" y="350" width="110" height="30" as="geometry"/>
                </mxCell>
                <mxCell id="669" value="complaint registered&lt;br&gt;&amp;nbsp;for order&lt;br&gt;by customer&lt;br&gt;attended by &lt;br&gt;service employee" style="text;html=1;align=center;verticalAlign=middle;resizable=0;points=[];autosize=1;strokeColor=none;fillColor=none;" parent="1" vertex="1">
                    <mxGeometry x="-450" y="368" width="120" height="80" as="geometry"/>
                </mxCell>
                <mxCell id="672" value="registers complaint&lt;br&gt;for order" style="text;html=1;align=center;verticalAlign=middle;resizable=0;points=[];autosize=1;strokeColor=none;fillColor=none;" parent="1" vertex="1">
                    <mxGeometry x="-420" y="260" width="120" height="30" as="geometry"/>
                </mxCell>
                <mxCell id="673" value="stores" style="text;html=1;align=center;verticalAlign=middle;resizable=0;points=[];autosize=1;strokeColor=none;fillColor=none;" parent="1" vertex="1">
                    <mxGeometry x="35" y="790" width="50" height="20" as="geometry"/>
                </mxCell>
                <mxCell id="674" value="stored in" style="text;html=1;align=center;verticalAlign=middle;resizable=0;points=[];autosize=1;strokeColor=none;fillColor=none;" parent="1" vertex="1">
                    <mxGeometry x="520" y="750" width="60" height="20" as="geometry"/>
                </mxCell>
                <mxCell id="675" value="works in" style="text;html=1;align=center;verticalAlign=middle;resizable=0;points=[];autosize=1;strokeColor=none;fillColor=none;" parent="1" vertex="1">
                    <mxGeometry x="-1040" y="510" width="60" height="20" as="geometry"/>
                </mxCell>
                <mxCell id="676" value="has as &lt;br&gt;workers" style="text;html=1;align=center;verticalAlign=middle;resizable=0;points=[];autosize=1;strokeColor=none;fillColor=none;" parent="1" vertex="1">
                    <mxGeometry x="-820" y="630" width="60" height="30" as="geometry"/>
                </mxCell>
                <mxCell id="678" style="edgeStyle=none;html=1;exitX=0;exitY=0.5;exitDx=0;exitDy=0;endArrow=none;endFill=0;" edge="1" parent="1" source="225">
                    <mxGeometry relative="1" as="geometry">
                        <mxPoint x="10" y="540" as="targetPoint"/>
                    </mxGeometry>
                </mxCell>
                <mxCell id="682" value="Delivery_date" style="ellipse;whiteSpace=wrap;html=1;align=center;" vertex="1" parent="1">
                    <mxGeometry x="-1280" y="1310" width="100" height="40" as="geometry"/>
                </mxCell>
                <mxCell id="685" value="details" style="ellipse;whiteSpace=wrap;html=1;align=center;" vertex="1" parent="1">
                    <mxGeometry x="-420" y="160" width="100" height="40" as="geometry"/>
                </mxCell>
                <mxCell id="688" value="Resolved" style="ellipse;whiteSpace=wrap;html=1;align=center;" vertex="1" parent="1">
                    <mxGeometry x="-660" y="240" width="100" height="40" as="geometry"/>
                </mxCell>
                <mxCell id="690" value="date_of_creation" style="ellipse;whiteSpace=wrap;html=1;align=center;" vertex="1" parent="1">
                    <mxGeometry x="-585" y="200" width="100" height="40" as="geometry"/>
                </mxCell>
            </root>
        </mxGraphModel>
    </diagram>
</mxfile>